<?xml version="1.0" encoding="iso-8859-1"?>
<!-- Generator: Adobe Illustrator 19.0.0, SVG Export Plug-In . SVG Version: 6.00 Build 0)  -->
<svg version="1.1" id="Capa_1" xmlns="http://www.w3.org/2000/svg" xmlns:xlink="http://www.w3.org/1999/xlink" x="0px" y="0px"
	 viewBox="0 0 512 512" style="enable-background:new 0 0 512 512;" xml:space="preserve">
<g>
	<g>
		<path d="M356,118H20c-11.046,0-20,8.954-20,20s8.954,20,20,20h336c11.046,0,20-8.954,20-20C376,126.954,367.046,118,356,118z"/>
	</g>
</g>
<g>
	<g>
		<path d="M492,0H20C8.954,0,0,8.954,0,20s8.954,20,20,20h472c11.046,0,20-8.954,20-20S503.046,0,492,0z"/>
	</g>
</g>
<g>
	<g>
		<path d="M492,472H20c-11.046,0-20,8.954-20,20c0,11.046,8.954,20,20,20h472c11.046,0,20-8.954,20-20
			C512,480.954,503.046,472,492,472z"/>
	</g>
</g>
<g>
	<g>
		<path d="M356,354H20c-11.046,0-20,8.954-20,20c0,11.046,8.954,20,20,20h336c11.046,0,20-8.954,20-20
			C376,362.954,367.046,354,356,354z"/>
	</g>
</g>
<g>
	<g>
		<path d="M492,236H20c-11.046,0-20,8.954-20,20c0,11.046,8.954,20,20,20h472c11.046,0,20-8.954,20-20S503.046,236,492,236z"/>
	</g>
</g>
<g>
</g>
<g>
</g>
<g>
</g>
<g>
</g>
<g>
</g>
<g>
</g>
<g>
</g>
<g>
</g>
<g>
</g>
<g>
</g>
<g>
</g>
<g>
</g>
<g>
</g>
<g>
</g>
<g>
</g>
</svg>
