<?xml version="1.0" encoding="iso-8859-1"?>
<!-- Generator: Adobe Illustrator 19.0.0, SVG Export Plug-In . SVG Version: 6.00 Build 0)  -->
<svg version="1.1" id="Capa_1" xmlns="http://www.w3.org/2000/svg" xmlns:xlink="http://www.w3.org/1999/xlink" x="0px" y="0px"
	 viewBox="0 0 512 512" style="enable-background:new 0 0 512 512;" xml:space="preserve">
<g>
	<g>
		<path d="M492,357.122c11.046,0,20-8.954,20-20v-141c0-40.804-33.196-74-74-74s-74,33.196-74,74V438c0,40.804,33.196,74,74,74
			s74-33.196,74-74c0-11.046-8.954-20-20-20c-11.046,0-20,8.954-20,20c0,18.748-15.252,34-34,34s-34-15.252-34-34V196.122
			c0-18.748,15.252-34,34-34s34,15.252,34,34v141C472,348.168,480.954,357.122,492,357.122z"/>
	</g>
</g>
<g>
	<g>
		<path d="M74,183.122c-40.804,0-74,33.196-74,74V438c0,40.804,33.196,74,74,74s74-33.196,74-74V257.122
			C148,216.318,114.804,183.122,74,183.122z M108,438c0,18.748-15.252,34-34,34s-34-15.252-34-34V257.122c0-18.748,15.252-34,34-34
			s34,15.252,34,34V438z"/>
	</g>
</g>
<g>
	<g>
		<path d="M256,0c-40.804,0-74,33.196-74,74v364c0,40.804,33.196,74,74,74s74-33.196,74-74V74C330,33.196,296.804,0,256,0z M290,438
			c0,18.748-15.252,34-34,34s-34-15.252-34-34V74c0-18.748,15.252-34,34-34s34,15.252,34,34V438z"/>
	</g>
</g>
<g>
</g>
<g>
</g>
<g>
</g>
<g>
</g>
<g>
</g>
<g>
</g>
<g>
</g>
<g>
</g>
<g>
</g>
<g>
</g>
<g>
</g>
<g>
</g>
<g>
</g>
<g>
</g>
<g>
</g>
</svg>
