<?xml version="1.0" encoding="iso-8859-1"?>
<!-- Generator: Adobe Illustrator 19.0.0, SVG Export Plug-In . SVG Version: 6.00 Build 0)  -->
<svg version="1.1" id="Capa_1" xmlns="http://www.w3.org/2000/svg" xmlns:xlink="http://www.w3.org/1999/xlink" x="0px" y="0px"
	 viewBox="0 0 512 512" style="enable-background:new 0 0 512 512;" xml:space="preserve">
<g>
	<g>
		<path d="M129.287,99.008L83.29,52.01c-7.725-7.895-20.386-8.03-28.281-0.304c-7.894,7.725-8.031,20.387-0.304,28.28l45.998,46.998
			c3.917,4.003,9.104,6.011,14.293,6.011c5.047,0,10.096-1.898,13.987-5.707C136.877,119.564,137.014,106.901,129.287,99.008z"/>
	</g>
</g>
<g>
	<g>
		<path d="M184.991,0.002c-11.045,0-19.999,8.953-19.999,19.999v66.997c0,11.045,8.954,19.999,19.999,19.999
			s19.999-8.953,19.999-19.999V20.001C204.99,8.956,196.037,0.002,184.991,0.002z"/>
	</g>
</g>
<g>
	<g>
		<path d="M86.996,161.993H20c-11.045,0-19.999,8.953-19.999,19.999c0,11.045,8.954,19.999,19.999,19.999h66.996
			c11.045,0,19.999-8.953,19.999-19.999C106.995,170.947,98.042,161.993,86.996,161.993z"/>
	</g>
</g>
<g>
	<g>
		<path d="M457.295,432.015l-45.998-46.998c-7.725-7.895-20.386-8.03-28.281-0.304c-7.894,7.725-8.031,20.387-0.304,28.281
			l45.998,46.997c3.917,4.003,9.104,6.011,14.293,6.011c5.047,0,10.096-1.898,13.987-5.707
			C464.885,452.571,465.021,439.909,457.295,432.015z"/>
	</g>
</g>
<g>
	<g>
		<path d="M327.009,405.006c-11.045,0-19.999,8.954-19.999,19.999v66.996c0,11.045,8.954,19.999,19.999,19.999
			s19.999-8.953,19.999-19.999v-66.996C347.008,413.959,338.054,405.006,327.009,405.006z"/>
	</g>
</g>
<g>
	<g>
		<path d="M492,310.011h-66.996c-11.045,0-19.999,8.954-19.999,19.999s8.954,19.999,19.999,19.999H492
			c11.045,0,19.999-8.953,19.999-19.999S503.045,310.011,492,310.011z"/>
	</g>
</g>
<g>
	<g>
		<path d="M474.655,37.746c-4.688-4.683-9.609-9.006-14.621-12.847l-0.954-0.732c-0.61-0.58-1.257-1.123-1.938-1.624
			C436.826,7.585,414.537,0,390.893,0c-36.891,0-75.264,18.834-110.976,54.465c-0.348,0.348-0.683,0.708-1.005,1.08l-1.567,1.813
			l-1.819,1.573c-0.37,0.32-0.727,0.653-1.073,0.999c-35.631,35.686-54.465,74.061-54.465,110.974
			c0,15.776,3.685,31.49,10.952,46.707c4.76,9.967,16.698,14.185,26.666,9.427c9.966-4.761,14.187-16.698,9.426-26.666
			c-4.676-9.789-7.047-19.704-7.047-29.467c0-25.93,14.611-54.342,42.266-82.205l2.354-2.035c0.733-0.634,1.418-1.32,2.052-2.052
			l2.026-2.345c27.884-27.656,56.3-42.27,82.21-42.27c14.417,0,28.26,4.632,41.171,13.77c0.41,0.373,0.837,0.728,1.278,1.067
			l2.354,1.806c3.637,2.788,7.236,5.954,10.695,9.409c16.976,16.952,25.584,35.467,25.584,55.029
			c0,25.934-14.611,54.348-42.269,82.212l-2.354,2.037c-0.726,0.629-1.407,1.309-2.036,2.037l-2.03,2.347
			c-25.709,25.485-52.842,39.766-78.508,41.314c-11.025,0.665-19.424,10.141-18.759,21.167c0.64,10.615,9.448,18.796,19.944,18.796
			c0.405,0,0.814-0.013,1.224-0.038c35.725-2.155,71.984-20.631,104.858-53.431c0.345-0.345,0.678-0.703,0.997-1.072l1.576-1.821
			l1.824-1.578c0.366-0.317,0.721-0.648,1.064-0.991c35.633-35.686,54.467-74.061,54.467-110.978
			C511.974,90.512,499.419,62.474,474.655,37.746z"/>
	</g>
</g>
<g>
	<g>
		<path d="M281.033,294.367c-4.76-9.967-16.699-14.185-26.666-9.426c-9.966,4.761-14.187,16.698-9.427,26.666
			c4.676,9.79,7.047,19.703,7.047,29.466c0,25.93-14.611,54.342-42.266,82.205l-2.354,2.035c-0.733,0.634-1.418,1.32-2.052,2.052
			l-2.026,2.345c-27.885,27.656-56.3,42.27-82.21,42.27c-14.417,0-28.26-4.632-41.171-13.77c-0.41-0.373-0.837-0.729-1.278-1.067
			l-2.354-1.806c-3.637-2.788-7.236-5.954-10.695-9.409c-16.976-16.952-25.584-35.467-25.584-55.029
			c0-25.933,14.614-54.349,42.269-82.211l2.354-2.038c0.726-0.629,1.407-1.309,2.036-2.037l2.032-2.348
			c26.432-26.218,53.221-40.847,77.506-42.311c11.025-0.665,19.424-10.141,18.759-21.167c-0.666-11.025-10.123-19.431-21.167-18.759
			c-34.823,2.1-69.766,20.413-103.859,54.429c-0.345,0.345-0.678,0.703-0.997,1.072l-1.576,1.82l-1.824,1.579
			c-0.366,0.317-0.721,0.648-1.064,0.991C18.835,315.604,0.001,353.979,0.001,390.896c0,30.566,12.555,58.605,37.319,83.333
			c4.688,4.683,9.609,9.005,14.621,12.847l0.954,0.732c0.61,0.58,1.257,1.123,1.938,1.624
			c20.316,14.958,42.605,22.543,66.248,22.543c36.89,0,75.264-18.834,110.975-54.464c0.348-0.348,0.683-0.708,1.005-1.08
			l1.567-1.813l1.819-1.573c0.37-0.32,0.727-0.653,1.073-0.999c35.631-35.686,54.465-74.061,54.465-110.974
			C291.986,325.298,288.301,309.584,281.033,294.367z"/>
	</g>
</g>
<g>
</g>
<g>
</g>
<g>
</g>
<g>
</g>
<g>
</g>
<g>
</g>
<g>
</g>
<g>
</g>
<g>
</g>
<g>
</g>
<g>
</g>
<g>
</g>
<g>
</g>
<g>
</g>
<g>
</g>
</svg>
