<svg id="_014-car" data-name="014-car" xmlns="http://www.w3.org/2000/svg" width="66.461" height="45.158" viewBox="0 0 66.461 45.158">
  <g id="Grupo_14820" data-name="Grupo 14820" transform="translate(0 0)">
    <path id="Trazado_11052" data-name="Trazado 11052" d="M65.549,97.544l0-.009L58.692,86.227a8.7,8.7,0,0,0-7.4-4.167H25.8a8.612,8.612,0,0,0-7.273,3.968l-7.2,11.186-8.705,4.351A4.722,4.722,0,0,0,0,105.812v9.1a4.762,4.762,0,0,0,1.511,3.473L3.349,120.1a4.736,4.736,0,0,0,3.236,1.273h2a7.141,7.141,0,0,0,14.044,0h5.778a1.3,1.3,0,0,0,0-2.6H22.632a7.143,7.143,0,0,0-14.049,0h-2a2.147,2.147,0,0,1-1.467-.577l-1.837-1.713a2.158,2.158,0,0,1-.685-1.574v-.634h2.37a3.76,3.76,0,0,0,3.756-3.756v-1.21a3.76,3.76,0,0,0-3.756-3.756H2.612a2.137,2.137,0,0,1,1.173-1.67l8.75-4.374H27.4a2.689,2.689,0,0,0,2.686-2.686V90.372A2.689,2.689,0,0,0,27.4,87.686H20.551l.163-.253a6.026,6.026,0,0,1,5.09-2.777H51.295a6.089,6.089,0,0,1,4.939,2.556h-.368A2.689,2.689,0,0,0,53.18,89.9V96.82a2.689,2.689,0,0,0,2.686,2.686h7.761a3.73,3.73,0,0,1,.239,1.311V115.04a3.744,3.744,0,0,1-2.9,3.643,7.143,7.143,0,0,0-14.031.094H40.146a1.3,1.3,0,1,0,0,2.6h6.79a7.141,7.141,0,0,0,14.055-.06,6.342,6.342,0,0,0,5.47-6.273V100.817a6.321,6.321,0,0,0-.912-3.273ZM15.607,124.621a4.551,4.551,0,0,1-4.546-4.542,4.6,4.6,0,0,1,2.8-4.2,4.546,4.546,0,1,1,1.744,8.744ZM6.126,109.314v1.21a1.161,1.161,0,0,1-1.16,1.16H2.6v-3.53h2.37A1.161,1.161,0,0,1,6.126,109.314ZM27.4,90.282a.09.09,0,0,1,.089.089v6.457a.09.09,0,0,1-.089.089H14.608l4.271-6.636H27.4Zm26.556,34.339a4.551,4.551,0,0,1-4.546-4.541s0,0,0,0a4.546,4.546,0,1,1,4.546,4.546Zm1.817-27.8V89.9a.089.089,0,0,1,.089-.089h1.961l4.3,7.1H55.865A.09.09,0,0,1,55.776,96.821Z" transform="translate(0 -82.06)" fill="#25669e"/>
    <path id="Trazado_11053" data-name="Trazado 11053" d="M274.357,134.543v-6.457a2.689,2.689,0,0,0-2.685-2.686H260.686A2.689,2.689,0,0,0,258,128.087v6.457a2.689,2.689,0,0,0,2.685,2.686h10.985A2.689,2.689,0,0,0,274.357,134.543Zm-13.76,0v-6.457a.09.09,0,0,1,.089-.089h10.985a.089.089,0,0,1,.089.089v6.457a.089.089,0,0,1-.089.089H260.686A.089.089,0,0,1,260.6,134.543Z" transform="translate(-224.51 -119.775)" fill="#25669e"/>
    <path id="Trazado_11054" data-name="Trazado 11054" d="M181.9,253.9a1.3,1.3,0,1,0,0,2.6h2.926a1.3,1.3,0,1,0,0-2.6Z" transform="translate(-157.16 -231.593)" fill="#25669e"/>
    <path id="Trazado_11055" data-name="Trazado 11055" d="M257.281,365.719a1.3,1.3,0,1,0-.451,1.558A1.31,1.31,0,0,0,257.281,365.719Z" transform="translate(-221.711 -328.201)" fill="#25669e"/>
  </g>
</svg>
