<?xml version="1.0" encoding="iso-8859-1"?>
<!-- Generator: Adobe Illustrator 19.0.0, SVG Export Plug-In . SVG Version: 6.00 Build 0)  -->
<svg version="1.1" id="Capa_1" xmlns="http://www.w3.org/2000/svg" xmlns:xlink="http://www.w3.org/1999/xlink" x="0px" y="0px"
	 viewBox="0 0 512 512" style="enable-background:new 0 0 512 512;" xml:space="preserve">
<g>
	<g>
		<path d="M492,350c11.046,0,20-8.954,20-20v-90.786C512,206.062,487.367,182,453.429,182c-9.449,0-18.608,2.533-26.717,7.14
			c-2.276-2.714-4.901-5.313-7.848-7.746c-11.193-9.239-24.995-14.328-38.863-14.328c-12.288,0-24.086,4.059-33.742,11.216
			c-0.604-0.584-1.225-1.158-1.859-1.72C333.793,167.172,320.156,162,306,162c-5.889,0-11.605,0.9-17,2.584V57
			c0-31.43-25.57-57-57-57s-57,25.57-57,57v248.457c0,10.156-6.605,24.488-17.416,25.501l-76.245-34.976
			c-0.601-0.275-1.215-0.521-1.84-0.736C73.231,293.092,66.671,292,60,292c-33.084,0-60,26.916-60,60
			c0,16.252,6.392,31.469,17.999,42.847c0.742,0.727,1.539,1.396,2.385,1.999l16.026,11.435c0.336,0.24,0.679,0.469,1.029,0.688
			l96.536,60.231c44.877,28,96.558,42.8,149.455,42.8H400.5c47.684,0,90.051-30.214,105.425-75.185
			c3.573-10.452-2.003-21.821-12.455-25.395c-10.452-3.574-21.822,2.003-25.395,12.455C458.235,452.661,431.079,472,400.5,472
			H283.43c-45.403,0-89.762-12.704-128.282-36.737L59.139,375.36l-14.037-10.015C41.802,361.673,40,356.982,40,352
			c0-11.028,8.972-20,20-20c1.959,0,3.879,0.277,5.72,0.825l76.258,34.981c0.461,0.212,0.931,0.406,1.408,0.582
			c5.217,1.927,10.125,2.774,15.008,2.587C193.358,369.64,215,335.926,215,305.457V57c0-9.374,7.626-17,17-17
			c9.374,0,17,7.626,17,17v166.96c0,11.046,8.954,20,20,20c11.046,0,20-8.954,20-20v-7.375c0.192-0.552,0.361-1.116,0.506-1.693
			C291.392,207.422,298.328,202,306,202c8.701,0,16.4,6.448,16.813,14.079c1.02,18.883,14.065,23.921,21.612,23.921
			c7.555,0,17.469-4.596,20.547-17.549c0.494-2.077,0.835-4.272,1.166-6.395c0.094-0.602,0.211-1.358,0.325-2.04
			c3.217-4.331,8.241-6.95,13.537-6.95c8.784,0,15.511,6.478,17.078,9.19c0.01,0.108,0.02,0.216,0.032,0.323
			c0.035,0.332,0.358,3.328,0.965,6.464c3.661,18.913,16.33,20.955,21.607,20.955c4.75,0,13.641-1.675,19.83-12.894
			c1.178-2.136,5.665-9.106,13.917-9.106c5.584,0,18.571,1.677,18.571,17.214V330C472,341.046,480.954,350,492,350z"/>
	</g>
</g>
<g>
</g>
<g>
</g>
<g>
</g>
<g>
</g>
<g>
</g>
<g>
</g>
<g>
</g>
<g>
</g>
<g>
</g>
<g>
</g>
<g>
</g>
<g>
</g>
<g>
</g>
<g>
</g>
<g>
</g>
</svg>
