<svg xmlns="http://www.w3.org/2000/svg" width="21.993" height="15.063" viewBox="0 0 21.993 15.063">
  <g id="_020-delivery-2" data-name="020-delivery-2" transform="translate(0 0)">
    <g id="Grupo_243" data-name="Grupo 243" transform="translate(13.838 9.586)">
      <g id="Grupo_242" data-name="Grupo 242">
        <path id="Trazado_125" data-name="Trazado 125" d="M324.923,304.4a2.739,2.739,0,1,0,2.772,2.739A2.759,2.759,0,0,0,324.923,304.4Zm0,4.108a1.369,1.369,0,1,1,1.386-1.369A1.379,1.379,0,0,1,324.923,308.511Z" transform="translate(-322.151 -304.403)" fill="#da5d48"/>
      </g>
    </g>
    <g id="Grupo_245" data-name="Grupo 245" transform="translate(4.366 9.586)">
      <g id="Grupo_244" data-name="Grupo 244">
        <path id="Trazado_126" data-name="Trazado 126" d="M104.419,304.4a2.739,2.739,0,1,0,2.772,2.739A2.759,2.759,0,0,0,104.419,304.4Zm0,4.108a1.369,1.369,0,1,1,1.386-1.369A1.379,1.379,0,0,1,104.419,308.511Z" transform="translate(-101.647 -304.403)" fill="#da5d48"/>
      </g>
    </g>
    <g id="Grupo_247" data-name="Grupo 247" transform="translate(14.208 1.369)">
      <g id="Grupo_246" data-name="Grupo 246">
        <path id="Trazado_127" data-name="Trazado 127" d="M335.026,111.167a.694.694,0,0,0-.619-.377h-3.65v1.369h3.223l1.887,3.708,1.239-.615Z" transform="translate(-330.756 -110.79)" fill="#da5d48"/>
      </g>
    </g>
    <g id="Grupo_249" data-name="Grupo 249" transform="translate(9.287 11.662)">
      <g id="Grupo_248" data-name="Grupo 248">
        <path id="Trazado_213" data-name="Trazado 213" d="M0,0H5.244V1.369H0Z" fill="#da5d48"/>
      </g>
    </g>
    <g id="Grupo_251" data-name="Grupo 251" transform="translate(1.964 11.662)">
      <g id="Grupo_250" data-name="Grupo 250">
        <path id="Trazado_128" data-name="Trazado 128" d="M48.811,353.345h-2.4a.685.685,0,1,0,0,1.369h2.4a.685.685,0,1,0,0-1.369Z" transform="translate(-45.715 -353.345)" fill="#da5d48"/>
      </g>
    </g>
    <g id="Grupo_253" data-name="Grupo 253" transform="translate(1.964 0)">
      <g id="Grupo_252" data-name="Grupo 252">
        <path id="Trazado_129" data-name="Trazado 129" d="M65.6,86l-1.363-1.735A.7.7,0,0,0,63.689,84H58.652V79.206a.689.689,0,0,0-.693-.685H46.408a.685.685,0,1,0,0,1.369H57.266v4.793a.689.689,0,0,0,.693.685h5.39l1.009,1.284v3.531H62.441a.685.685,0,1,0,0,1.369h2.611a.689.689,0,0,0,.693-.685v-4.45A.68.68,0,0,0,65.6,86Z" transform="translate(-45.715 -78.521)" fill="#da5d48"/>
      </g>
    </g>
    <g id="Grupo_255" data-name="Grupo 255" transform="translate(1.132 8.193)">
      <g id="Grupo_254" data-name="Grupo 254">
        <path id="Trazado_130" data-name="Trazado 130" d="M30.234,271.6H27.046a.685.685,0,1,0,0,1.369h3.188a.685.685,0,1,0,0-1.369Z" transform="translate(-26.353 -271.597)" fill="#da5d48"/>
      </g>
    </g>
    <g id="Grupo_257" data-name="Grupo 257" transform="translate(0 5.5)">
      <g id="Grupo_256" data-name="Grupo 256">
        <path id="Trazado_131" data-name="Trazado 131" d="M6.607,208.134H.693a.685.685,0,1,0,0,1.369H6.607a.685.685,0,1,0,0-1.369Z" transform="translate(0 -208.134)" fill="#da5d48"/>
      </g>
    </g>
    <g id="Grupo_259" data-name="Grupo 259" transform="translate(1.132 2.807)">
      <g id="Grupo_258" data-name="Grupo 258">
        <path id="Trazado_132" data-name="Trazado 132" d="M32.96,144.672H27.046a.685.685,0,1,0,0,1.369H32.96a.685.685,0,1,0,0-1.369Z" transform="translate(-26.353 -144.672)" fill="#da5d48"/>
      </g>
    </g>
  </g>
</svg>
