<svg xmlns="http://www.w3.org/2000/svg" width="22.038" height="15.093" viewBox="0 0 22.038 15.093">
  <g id="_020-delivery-2" data-name="020-delivery-2" transform="translate(0 0)">
    <g id="Grupo_243" data-name="Grupo 243" transform="translate(2.616 9.605)">
      <g id="Grupo_242" data-name="Grupo 242" transform="translate(0)">
        <path id="Trazado_125" data-name="Trazado 125" d="M324.929,304.4a2.744,2.744,0,1,1-2.778,2.744A2.764,2.764,0,0,1,324.929,304.4Zm0,4.116a1.372,1.372,0,1,0-1.389-1.372A1.382,1.382,0,0,0,324.929,308.519Z" transform="translate(-322.151 -304.403)" fill="#da5d48"/>
      </g>
    </g>
    <g id="Grupo_245" data-name="Grupo 245" transform="translate(12.107 9.605)">
      <g id="Grupo_244" data-name="Grupo 244">
        <path id="Trazado_126" data-name="Trazado 126" d="M104.425,304.4a2.744,2.744,0,1,1-2.778,2.744A2.764,2.764,0,0,1,104.425,304.4Zm0,4.116a1.372,1.372,0,1,0-1.389-1.372A1.382,1.382,0,0,0,104.425,308.519Z" transform="translate(-101.647 -304.403)" fill="#da5d48"/>
      </g>
    </g>
    <g id="Grupo_247" data-name="Grupo 247" transform="translate(1.44 1.372)">
      <g id="Grupo_246" data-name="Grupo 246">
        <path id="Trazado_127" data-name="Trazado 127" d="M332.839,111.168a.7.7,0,0,1,.621-.378h3.658v1.372h-3.229L332,115.878l-1.241-.617Z" transform="translate(-330.756 -110.79)" fill="#da5d48"/>
      </g>
    </g>
    <g id="Grupo_249" data-name="Grupo 249" transform="translate(7.477 11.686)">
      <g id="Grupo_248" data-name="Grupo 248">
        <path id="Trazado_214" data-name="Trazado 214" d="M0,0H5.255V1.372H0Z" fill="#da5d48"/>
      </g>
    </g>
    <g id="Grupo_251" data-name="Grupo 251" transform="translate(16.274 11.686)">
      <g id="Grupo_250" data-name="Grupo 250">
        <path id="Trazado_128" data-name="Trazado 128" d="M46.409,353.345h2.407a.686.686,0,1,1,0,1.372H46.409a.686.686,0,1,1,0-1.372Z" transform="translate(-45.715 -353.345)" fill="#da5d48"/>
      </g>
    </g>
    <g id="Grupo_253" data-name="Grupo 253" transform="translate(0 0)">
      <g id="Grupo_252" data-name="Grupo 252">
        <path id="Trazado_129" data-name="Trazado 129" d="M45.861,86.013l1.366-1.738a.7.7,0,0,1,.548-.265h5.047v-4.8a.69.69,0,0,1,.694-.686H65.091a.686.686,0,1,1,0,1.372H54.211v4.8a.69.69,0,0,1-.694.686h-5.4L47.1,86.669v3.538h1.921a.686.686,0,1,1,0,1.372H46.409a.69.69,0,0,1-.694-.686V86.434A.682.682,0,0,1,45.861,86.013Z" transform="translate(-45.715 -78.521)" fill="#da5d48"/>
      </g>
    </g>
    <g id="Grupo_255" data-name="Grupo 255" transform="translate(16.32 8.21)">
      <g id="Grupo_254" data-name="Grupo 254">
        <path id="Trazado_130" data-name="Trazado 130" d="M27.047,271.6h3.195a.686.686,0,1,1,0,1.372H27.047a.686.686,0,1,1,0-1.372Z" transform="translate(-26.353 -271.597)" fill="#da5d48"/>
      </g>
    </g>
    <g id="Grupo_257" data-name="Grupo 257" transform="translate(14.723 5.511)">
      <g id="Grupo_256" data-name="Grupo 256">
        <path id="Trazado_131" data-name="Trazado 131" d="M.694,208.134H6.621a.686.686,0,1,1,0,1.372H.694a.686.686,0,1,1,0-1.372Z" transform="translate(0 -208.134)" fill="#da5d48"/>
      </g>
    </g>
    <g id="Grupo_259" data-name="Grupo 259" transform="translate(13.589 2.813)">
      <g id="Grupo_258" data-name="Grupo 258" transform="translate(0)">
        <path id="Trazado_132" data-name="Trazado 132" d="M27.047,144.672h5.926a.686.686,0,1,1,0,1.372H27.047a.686.686,0,1,1,0-1.372Z" transform="translate(-26.353 -144.672)" fill="#da5d48"/>
      </g>
    </g>
  </g>
</svg>
