<svg id="_021-distance" data-name="021-distance" xmlns="http://www.w3.org/2000/svg" width="23.404" height="20.975" viewBox="0 0 23.404 20.975">
  <g id="Grupo_262" data-name="Grupo 262" transform="translate(0 0)">
    <g id="Grupo_261" data-name="Grupo 261">
      <g id="Grupo_260" data-name="Grupo 260">
        <path id="Trazado_133" data-name="Trazado 133" d="M65.642,81.963a2.469,2.469,0,1,0,2.5,2.469A2.487,2.487,0,0,0,65.642,81.963Zm0,3.345a.876.876,0,1,1,.887-.876A.872.872,0,0,1,65.642,85.308Z" transform="translate(-60.257 -79.334)" fill="#fff"/>
        <path id="Trazado_134" data-name="Trazado 134" d="M10.758,28.822a5.436,5.436,0,0,0-5.373-5.069,5.4,5.4,0,0,0-4.247,8.708l3.6,4.753a.813.813,0,0,0,1.291,0l3.605-4.758A5.466,5.466,0,0,0,10.758,28.822ZM8.341,31.507l-2.956,3.9-2.952-3.9a3.891,3.891,0,0,1-.813-2.579,3.833,3.833,0,0,1,3.764-3.587A3.834,3.834,0,0,1,9.15,28.934,3.884,3.884,0,0,1,8.341,31.507Z" transform="translate(0.001 -23.753)" fill="#fff"/>
      </g>
    </g>
  </g>
  <g id="Grupo_265" data-name="Grupo 265" transform="translate(12.632 7.195)">
    <g id="Grupo_264" data-name="Grupo 264">
      <g id="Grupo_263" data-name="Grupo 263">
        <path id="Trazado_135" data-name="Trazado 135" d="M341.989,241.3a2.469,2.469,0,1,0,0,4.938,2.532,2.532,0,0,0,2.5-2.469A2.487,2.487,0,0,0,341.989,241.3Zm0,3.345a.876.876,0,1,1,.887-.9A.913.913,0,0,1,341.989,244.648Z" transform="translate(-336.604 -238.675)" fill="#fff"/>
        <path id="Trazado_136" data-name="Trazado 136" d="M287.113,188.168a5.383,5.383,0,1,0-9.62,3.639l3.6,4.753a.812.812,0,0,0,1.291,0l3.606-4.758A5.466,5.466,0,0,0,287.113,188.168Zm-2.418,2.685-2.956,3.9-2.952-3.9a3.889,3.889,0,0,1-.812-2.579,3.769,3.769,0,0,1,7.529,0A3.884,3.884,0,0,1,284.695,190.852Z" transform="translate(-276.354 -183.099)" fill="#fff"/>
      </g>
    </g>
  </g>
  <g id="Grupo_267" data-name="Grupo 267" transform="translate(4.955 12.196)">
    <g id="Grupo_266" data-name="Grupo 266" transform="translate(0 0)">
      <path id="Trazado_212" data-name="Trazado 212" d="M0,0,1.6.008l.077,14.574-1.6-.008Z" transform="matrix(0.5, -0.866, 0.866, 0.5, 0, 1.45)" fill="#fff"/>
    </g>
  </g>
</svg>
