<?xml version="1.0" encoding="iso-8859-1"?>
<!-- Generator: Adobe Illustrator 19.0.0, SVG Export Plug-In . SVG Version: 6.00 Build 0)  -->
<svg version="1.1" id="Capa_1" xmlns="http://www.w3.org/2000/svg" xmlns:xlink="http://www.w3.org/1999/xlink" x="0px" y="0px"
	 viewBox="0 0 512 512" style="enable-background:new 0 0 512 512;" xml:space="preserve">
<g>
	<g>
		<path d="M474.171,290.89c-7.801-7.82-20.465-7.835-28.285-0.035L270.142,466.166c-7.797,7.797-20.487,7.797-28.302-0.018
			L66.115,290.855c-7.82-7.8-20.484-7.785-28.285,0.035c-7.801,7.821-7.785,20.485,0.035,28.286L213.57,494.451
			C225.271,506.152,240.639,512,256.005,512c15.36,0,30.72-5.845,42.405-17.531l175.725-175.293
			C481.956,311.374,481.972,298.71,474.171,290.89z"/>
	</g>
</g>
<g>
	<g>
		<path d="M256,0c-11.047,0-20.001,8.954-20.001,20.001v362.018c0,11.047,8.954,20.001,20.001,20.001s20.001-8.954,20.001-20.001
			V20.001C276.001,8.954,267.046,0,256,0z"/>
	</g>
</g>
<g>
</g>
<g>
</g>
<g>
</g>
<g>
</g>
<g>
</g>
<g>
</g>
<g>
</g>
<g>
</g>
<g>
</g>
<g>
</g>
<g>
</g>
<g>
</g>
<g>
</g>
<g>
</g>
<g>
</g>
</svg>
