<?xml version="1.0" encoding="iso-8859-1"?>
<!-- Generator: Adobe Illustrator 19.0.0, SVG Export Plug-In . SVG Version: 6.00 Build 0)  -->
<svg version="1.1" id="Capa_1" xmlns="http://www.w3.org/2000/svg" xmlns:xlink="http://www.w3.org/1999/xlink" x="0px" y="0px"
	 viewBox="0 0 511.999 511.999" style="enable-background:new 0 0 511.999 511.999;" xml:space="preserve">
<g>
	<g>
		<g>
			<path d="M162.912,371.246c24.802,26.101,57.864,39.705,98.269,40.44c1.74,0.031,3.46,0.047,5.173,0.047
				c49.032-0.001,87.071-12.948,113.108-38.516c32.325-31.744,35.815-73.67,35.815-90.222c0-50.541-14.76-81.241-21.064-94.352
				c-0.351-0.731-0.675-1.404-0.964-2.017c-4.708-9.971-16.604-14.237-26.578-9.533c-9.971,4.707-14.24,16.606-9.533,26.578
				c0.327,0.693,0.692,1.45,1.088,2.275c5.556,11.558,17.12,35.609,17.12,77.05c0,11.515-2.325,40.581-23.861,61.731
				c-19.015,18.672-49.156,27.772-89.577,27.035c-29.656-0.538-52.527-9.659-69.918-27.883c-6.998-7.333-12.61-15.666-17.11-24.358
				c8.763,2.843,18.114,4.321,27.769,4.321c14.014,0,27.692-6.923,40.92-13.617c6.018-3.047,16.091-8.144,19.475-8.344
				c3.169,0,9.302,4.819,12.463,8.964l-0.099-0.133l32.171-23.654c-1.891-2.57-19.195-25.108-44.535-25.108
				c-12.515,0-24.654,6.143-37.506,12.648c-7.329,3.709-18.405,9.314-22.889,9.314c-22.691,0-45.588-14.908-45.916-48.187
				c0.275-13.903,16.679-24.459,16.966-24.603c0.921-0.231,1.891-0.336,2.893-0.336c12.039,0,29.051,15.31,29.051,15.31
				s3.824-25.044-8.984-35.937c1.307-6.242,35.478-22.732,38.236-24.765c3.774-2.758,8.211-6.88,10.678-11.961
				c1.742-3.193,4.293-8.506,4.002-15.184c-0.27-4.447-4.854-7.035-36.976-7.035c-2.484,0-5.132,0.016-7.955,0.047
				c-0.07,0.001-0.141,0.001-0.211,0.001c-10.709,0-24.142-10.947-24.746-18.968c4.646-16.985,18.406-39.769,33.941-49.913
				c0,0-0.378-0.014-1.085-0.014c-6.745,0-46.384,1.266-68.793,27.965c-9.889-2.149-16.734-2.995-25.869-2.995h-0.086
				c-12.04,0.007-22.854,1.533-30.946,3.993c-5.243-3.295-28.95-28.341-28.95-48.915c0,0-24.956,22.65-24.956,85.85v3.993
				c-6.08,8.343-31.573,49.049-32.89,131.222C0.018,263.963,0,264.451,0,264.944c0,0.386,0.003,0.949,0.015,1.677
				C0.005,267.779,0,268.946,0,270.122h0.112C0.77,287.456,5.186,340.92,34.033,393.47c18.98,34.572,44.88,62.091,76.983,81.795
				c39.194,24.054,87.488,36.25,143.54,36.25c34.828,0,68.961-4.99,101.451-14.833c10.553-3.196,16.516-14.343,13.319-24.896
				c-3.197-10.553-14.345-16.52-24.896-13.319c-28.733,8.705-58.971,13.118-89.873,13.118c-87.647,0-150.066-32.747-185.52-97.33
				c-26.567-48.392-28.888-98.64-29.088-107.879c0.752-76.09,24.248-109.205,25.263-110.597l7.662-10.514l8.155-10.432l17.435-5.301
				c1.744-0.53,8.294-2.26,19.331-2.267h0.086c7.164,0,14.022,0.701,20.381,2.083l5.225,1.136
				c4.995,12.241,14.523,22.556,25.804,29.739c-3.734,3.915-6.76,8.201-8.927,13.069l-0.603,0.151l-3.921,1.961
				c-9.468,4.735-35.349,23.974-38.687,55.817c-0.234,1.223-0.356,2.484-0.356,3.774c0,0.583,0.005,1.164,0.014,1.744
				c-0.006,0.307-0.011,0.616-0.012,0.925C116.631,244.171,115.703,321.568,162.912,371.246z"/>
			<path d="M489.575,368.505c-0.612,0.037-5.279,0.261-14.728-0.254c39.627-61.206,37.943-137.035,36.666-194.703
				c-0.208-9.38-0.403-18.239-0.403-26.398c0-10.612-8.304-19.371-18.901-19.937c-10.562-0.566-19.785,7.259-20.916,17.81
				c-0.74,6.904-3.543,14.117-8.194,21.323c-15.071-40.957-38.869-79.573-69.943-113.192c-29.941-32.395-56.198-48.949-57.3-49.637
				c-9.352-5.839-21.668-2.994-27.51,6.359c-5.841,9.354-2.994,21.669,6.359,27.51c0.921,0.575,92.393,58.811,119.951,172.369
				c1.613,6.647,6.515,12.005,12.991,14.2c6.474,2.196,13.626,0.924,18.948-3.37c1.778-1.434,3.595-2.959,5.432-4.572
				c-0.653,54.192-8.244,112.626-49.903,154.284c-5.364,5.364-7.224,13.303-4.803,20.491c2.421,7.188,8.707,12.383,16.222,13.409
				c3.618,0.493,7.047,0.931,10.301,1.323c-7.945,6.464-16.137,12.465-24.54,17.977c-9.221,6.045-11.795,18.423-5.748,27.643
				c3.833,5.846,10.209,9.02,16.714,9.019c3.754,0,7.554-1.057,10.929-3.271c23.208-15.217,44.94-33.692,64.593-54.913
				c5.632-6.078,7.062-15.018,3.382-22.443C505.505,372.128,497.79,367.745,489.575,368.505z"/>
		</g>
	</g>
</g>
<g>
</g>
<g>
</g>
<g>
</g>
<g>
</g>
<g>
</g>
<g>
</g>
<g>
</g>
<g>
</g>
<g>
</g>
<g>
</g>
<g>
</g>
<g>
</g>
<g>
</g>
<g>
</g>
<g>
</g>
</svg>
