<svg id="_017-goods" data-name="017-goods" xmlns="http://www.w3.org/2000/svg" width="20.143" height="19.285" viewBox="0 0 20.143 19.285">
  <g id="Grupo_210" data-name="Grupo 210" transform="translate(1.779 7.226)">
    <g id="Grupo_209" data-name="Grupo 209">
      <path id="Trazado_111" data-name="Trazado 111" d="M52.59,193.837H45.876a.663.663,0,0,0-.667.659v5.447a.663.663,0,0,0,.667.659H52.59a.663.663,0,0,0,.667-.659V194.5A.663.663,0,0,0,52.59,193.837Zm-.667,5.447h-5.38v-4.129h5.38Z" transform="translate(-45.209 -193.837)" fill="#da5d48"/>
    </g>
  </g>
  <g id="Grupo_212" data-name="Grupo 212" transform="translate(4.135 7.885)">
    <g id="Grupo_211" data-name="Grupo 211">
      <path id="Trazado_112" data-name="Trazado 112" d="M107.092,210.79v1.23h-.645v-1.23h-1.334v1.889a.663.663,0,0,0,.667.659h1.979a.663.663,0,0,0,.667-.659V210.79Z" transform="translate(-105.113 -210.79)" fill="#da5d48"/>
    </g>
  </g>
  <g id="Grupo_214" data-name="Grupo 214" transform="translate(10.45 7.226)">
    <g id="Grupo_213" data-name="Grupo 213">
      <path id="Trazado_113" data-name="Trazado 113" d="M273.211,193.837h-6.937a.663.663,0,0,0-.667.659v5.447a.663.663,0,0,0,.667.659h6.937a.663.663,0,0,0,.667-.659V194.5A.663.663,0,0,0,273.211,193.837Zm-.667,5.447h-5.6v-4.129h5.6Z" transform="translate(-265.607 -193.837)" fill="#da5d48"/>
    </g>
  </g>
  <g id="Grupo_216" data-name="Grupo 216" transform="translate(12.806 7.885)">
    <g id="Grupo_215" data-name="Grupo 215">
      <path id="Trazado_114" data-name="Trazado 114" d="M327.711,210.79v1.23h-.867v-1.23H325.51v1.889a.663.663,0,0,0,.667.659h2.2a.663.663,0,0,0,.667-.659V210.79Z" transform="translate(-325.51 -210.79)" fill="#da5d48"/>
    </g>
  </g>
  <g id="Grupo_218" data-name="Grupo 218" transform="translate(5.936 0)">
    <g id="Grupo_217" data-name="Grupo 217">
      <path id="Trazado_115" data-name="Trazado 115" d="M158.491,7.912h-6.937a.663.663,0,0,0-.667.659v5.447a.663.663,0,0,0,.667.659h6.937a.663.663,0,0,0,.667-.659V8.571A.663.663,0,0,0,158.491,7.912Zm-.667,5.447h-5.6V9.23h5.6v4.129Z" transform="translate(-150.887 -7.912)" fill="#da5d48"/>
    </g>
  </g>
  <g id="Grupo_220" data-name="Grupo 220" transform="translate(8.315 0.659)">
    <g id="Grupo_219" data-name="Grupo 219">
      <path id="Trazado_116" data-name="Trazado 116" d="M213.534,24.865v1.208h-.845V24.865h-1.334v1.867a.663.663,0,0,0,.667.659H214.2a.663.663,0,0,0,.667-.659V24.865Z" transform="translate(-211.355 -24.865)" fill="#da5d48"/>
    </g>
  </g>
  <g id="Grupo_222" data-name="Grupo 222" transform="translate(0 17.967)">
    <g id="Grupo_221" data-name="Grupo 221">
      <path id="Trazado_117" data-name="Trazado 117" d="M19.476,470.181H.667a.659.659,0,1,0,0,1.318H19.476a.659.659,0,1,0,0-1.318Z" transform="translate(0 -470.181)" fill="#da5d48"/>
    </g>
  </g>
  <g id="Grupo_224" data-name="Grupo 224" transform="translate(0 14.54)">
    <g id="Grupo_223" data-name="Grupo 223">
      <path id="Trazado_118" data-name="Trazado 118" d="M19.476,382.022H.667a.659.659,0,1,0,0,1.318H19.476a.659.659,0,1,0,0-1.318Z" transform="translate(0 -382.022)" fill="#da5d48"/>
    </g>
  </g>
  <g id="Grupo_226" data-name="Grupo 226" transform="translate(9.405 15.199)">
    <g id="Grupo_225" data-name="Grupo 225">
      <path id="Trazado_217" data-name="Trazado 217" d="M0,0H1.334V3.426H0Z" fill="#da5d48"/>
    </g>
  </g>
  <g id="Grupo_228" data-name="Grupo 228" transform="translate(16.075 15.199)">
    <g id="Grupo_227" data-name="Grupo 227">
      <path id="Trazado_216" data-name="Trazado 216" d="M0,0H1.334V3.426H0Z" fill="#da5d48"/>
    </g>
  </g>
  <g id="Grupo_230" data-name="Grupo 230" transform="translate(2.735 15.199)">
    <g id="Grupo_229" data-name="Grupo 229">
      <path id="Trazado_215" data-name="Trazado 215" d="M0,0H1.334V3.426H0Z" fill="#da5d48"/>
    </g>
  </g>
</svg>
