<?xml version="1.0" encoding="iso-8859-1"?>
<!-- Generator: Adobe Illustrator 19.0.0, SVG Export Plug-In . SVG Version: 6.00 Build 0)  -->
<svg version="1.1" id="Capa_1" xmlns="http://www.w3.org/2000/svg" xmlns:xlink="http://www.w3.org/1999/xlink" x="0px" y="0px"
	 viewBox="0 0 511.998 511.998" style="enable-background:new 0 0 511.998 511.998;" xml:space="preserve">
<g>
	<g>
		<path d="M506.14,477.85L400.745,372.453c-0.161-0.167-0.324-0.33-0.49-0.49L140.272,111.98c-0.176-0.183-0.354-0.361-0.536-0.536
			L34.158,5.866c-7.811-7.811-20.473-7.811-28.283,0c-7.81,7.811-7.811,20.473,0,28.283l89.388,89.388
			c-45.563,35.873-73.81,75.931-82.097,88.53c-17.554,26.688-17.554,61.178,0,87.866c10.712,16.285,40.915,58.094,89.902,94.504
			c49.599,36.865,101.203,55.557,153.378,55.557c43.005,0,85.726-12.796,127.205-38.068l94.208,94.208
			c3.905,3.905,9.023,5.858,14.141,5.858s10.237-1.953,14.141-5.858C513.951,498.322,513.951,485.66,506.14,477.85z
			 M191.476,219.749l27.519,27.519c-2.892,12.647,0.587,26.456,10.438,36.307c9.851,9.851,23.659,13.329,36.307,10.438
			l26.529,26.529c-10.947,6.172-23.35,9.455-36.26,9.455c-40.803,0-73.997-33.195-73.997-73.997
			C182.011,243.139,185.303,230.714,191.476,219.749z M256.445,409.993c-97.103,0-177.604-82.999-209.863-132.043
			c-8.772-13.335-8.772-30.568,0-43.903c7.621-11.586,34.189-49.233,77.183-82.007l38.732,38.732
			c-13.303,19.018-20.485,41.649-20.485,65.227c0,62.858,51.138,113.996,113.996,113.996c23.673,0,46.244-7.168,65.237-20.476
			l33.167,33.167C321.998,400.821,289.136,409.993,256.445,409.993z"/>
	</g>
</g>
<g>
	<g>
		<path d="M499.356,212.844c-0.103-0.167-0.208-0.334-0.315-0.5c-10.619-16.305-40.582-58.166-89.351-94.632
			c-49.438-36.965-100.997-55.708-153.245-55.708c-19.887,0-40.046,2.811-59.915,8.353c-10.64,2.969-16.858,14-13.891,24.638
			c2.968,10.639,13.995,16.856,24.638,13.891c16.37-4.567,32.913-6.882,49.167-6.882c96.691,0,176.434,82.377,208.671,131.543
			c0.103,0.167,0.209,0.334,0.318,0.499c4.296,6.532,6.567,14.122,6.567,21.952c0,7.83-2.271,15.42-6.567,21.952
			c-9.62,14.625-22.511,30.668-36.301,45.174c-7.61,8.006-7.29,20.664,0.716,28.274c3.87,3.679,8.827,5.504,13.776,5.504
			c5.288,0,10.568-2.085,14.499-6.221c19.709-20.733,33.027-39.044,40.728-50.752c8.602-13.078,13.148-28.269,13.148-43.933
			C511.998,240.644,507.63,225.744,499.356,212.844z"/>
	</g>
</g>
<g>
	<g>
		<path d="M367.352,231.459c-9.4-42.81-43.082-76.796-85.812-86.582c-10.766-2.461-21.493,4.264-23.959,15.03
			c-2.465,10.767,4.264,21.493,15.03,23.959c27.722,6.348,49.574,28.396,55.672,56.171c2.051,9.344,10.327,15.714,19.515,15.714
			c1.42,0,2.863-0.152,4.308-0.47C362.895,252.913,369.72,242.247,367.352,231.459z"/>
	</g>
</g>
<g>
</g>
<g>
</g>
<g>
</g>
<g>
</g>
<g>
</g>
<g>
</g>
<g>
</g>
<g>
</g>
<g>
</g>
<g>
</g>
<g>
</g>
<g>
</g>
<g>
</g>
<g>
</g>
<g>
</g>
</svg>
