<?xml version="1.0" encoding="iso-8859-1"?>
<!-- Generator: Adobe Illustrator 19.0.0, SVG Export Plug-In . SVG Version: 6.00 Build 0)  -->
<svg version="1.1" id="Capa_1" xmlns="http://www.w3.org/2000/svg" xmlns:xlink="http://www.w3.org/1999/xlink" x="0px" y="0px"
	 viewBox="0 0 512 512" style="enable-background:new 0 0 512 512;" xml:space="preserve">
<g>
	<g>
		<path d="M394.382,56.268C357.792,19.947,309.378,0,257.904,0c-0.438,0-0.887,0.001-1.325,0.004C256.13,0.001,255.693,0,255.247,0
			C203.406,0,154.58,20.15,117.625,56.831C80.789,93.397,60.5,141.852,60.5,193.268c0,77.352,44.406,119.026,76.831,149.455
			C159.756,363.768,173.5,377.456,173.5,393v59c0,33.084,26.916,60,60,60h45c33.084,0,60-26.916,60-60v-61
			c0-0.795-0.047-1.579-0.137-2.349c1.973-11.793,11.945-23.293,28.793-39.318c8.004-7.613,8.321-20.272,0.708-28.276
			c-7.613-8.003-20.272-8.321-28.275-0.708c-16.524,15.717-31.772,31.659-38.276,51.652H275.5V202.284l20-20l25.858,25.858
			c3.905,3.905,9.023,5.858,14.142,5.858c5.119,0,10.237-1.953,14.142-5.858c7.811-7.811,7.811-20.474,0-28.284l-40-40
			c-7.811-7.811-20.474-7.811-28.284,0L255.5,165.716l-25.858-25.858c-7.811-7.811-20.474-7.811-28.284,0l-40,40
			c-7.811,7.811-7.811,20.474,0,28.284c7.811,7.81,20.474,7.811,28.284,0l25.858-25.858l20,20V372h-25.305
			c-7.363-22.661-26.008-40.159-45.492-58.445C133.14,283.933,100.5,253.302,100.5,193.267c0-40.675,16.09-79.048,45.305-108.048
			C175.209,56.031,214.037,40,255.255,40c0.391,0,0.784,0.001,1.175,0.004c0.099,0.001,0.197,0.001,0.296,0
			c0.39-0.003,0.778-0.004,1.168-0.004c40.846,0,79.27,15.833,108.308,44.657c28.211,28.003,44.181,64.937,45.242,104.403
			c-0.291,1.356-0.443,2.765-0.443,4.208c0,23.132-4.647,43.228-14.208,61.437c-5.135,9.78-1.369,21.871,8.41,27.005
			c9.779,5.136,21.871,1.37,27.005-8.41c11.978-22.813,18.125-47.506,18.741-75.348c0.36-1.502,0.551-3.071,0.551-4.684
			C451.5,141.485,431.216,92.831,394.382,56.268z M213.5,412h85v40c0,11.028-8.972,20-20,20h-45c-11.028,0-20-8.972-20-20V412z"/>
	</g>
</g>
<g>
</g>
<g>
</g>
<g>
</g>
<g>
</g>
<g>
</g>
<g>
</g>
<g>
</g>
<g>
</g>
<g>
</g>
<g>
</g>
<g>
</g>
<g>
</g>
<g>
</g>
<g>
</g>
<g>
</g>
</svg>
