<?xml version="1.0" encoding="iso-8859-1"?>
<!-- Generator: Adobe Illustrator 19.0.0, SVG Export Plug-In . SVG Version: 6.00 Build 0)  -->
<svg version="1.1" id="Capa_1" xmlns="http://www.w3.org/2000/svg" xmlns:xlink="http://www.w3.org/1999/xlink" x="0px" y="0px"
	 viewBox="0 0 512 512" style="enable-background:new 0 0 512 512;" xml:space="preserve">
<g>
	<g>
		<path d="M452,188h-30c-6.513,0-12.786,1.043-18.663,2.971l-98.74-153.753l-12.888-18.104L290.616,18
			C279.239,6.392,264.022,0,247.769,0c-33.084,0-60,26.916-60,60c0,6.667,1.092,13.226,3.244,19.495l0.409,1.192l0.557,1.132
			c3.142,6.395,6.5,13.081,10.055,20.158c8.963,17.845,23.761,47.306,25.978,56.162C226.569,168.62,212.556,175,202.574,175H71
			c-31.43,0-57,25.57-57,57c0,10.347,2.83,20.344,7.982,29.021C8.429,271.569,0,287.974,0,306c0,14.156,5.172,27.793,14.563,38.398
			c2.471,2.791,5.164,5.293,8.038,7.487c-4.851,8.455-7.535,18.124-7.535,28.115c0,21.677,12.255,40.567,30.247,50.204
			C41.87,437.408,40,445.313,40,453.429C40,487.367,64.062,512,97.214,512H293c11.046,0,20-8.954,20-20c0-11.046-8.954-20-20-20
			H97.214C81.678,472,80,459.013,80,453.429c0-8.252,6.97-12.739,9.105-13.917c11.22-6.189,12.895-15.081,12.895-19.83
			C102,406.963,91.019,397,77,397h-4.511c-9.607,0-17.423-7.626-17.423-17c0-5.966,3.324-11.587,8.674-14.668
			c0.339-0.195,0.654-0.363,0.94-0.517c8.839-4.774,13.32-11.634,13.32-20.39c0-7.547-5.038-20.593-23.92-21.612
			C46.448,322.4,40,314.701,40,306c0-7.672,5.422-14.609,12.892-16.493C64.919,286.473,73,277.026,73,266
			c0-5.459-2.013-13.362-11.6-20.014C56.767,242.771,54,237.543,54,232c0-9.374,7.626-17,17-17h131.574
			c30.471,0,64.185-21.643,65.519-56.607l0.015-0.763c0-12.025-8.777-30.697-30.33-73.606c-3.267-6.504-6.365-12.672-9.246-18.519
			c-0.507-1.777-0.763-3.624-0.763-5.505c0-11.028,8.972-20,20-20c4.982,0,9.673,1.802,13.345,5.101l10.091,14.143l100.364,156.281
			C365.516,224.891,362,236.043,362,248v204c0,33.084,26.916,60,60,60h30c33.084,0,60-26.916,60-60V248
			C512,214.916,485.084,188,452,188z M472,452c0,11.028-8.972,20-20,20h-30c-11.028,0-20-8.972-20-20V248c0-11.028,8.972-20,20-20
			h30c11.028,0,20,8.972,20,20V452z"/>
	</g>
</g>
<g>
</g>
<g>
</g>
<g>
</g>
<g>
</g>
<g>
</g>
<g>
</g>
<g>
</g>
<g>
</g>
<g>
</g>
<g>
</g>
<g>
</g>
<g>
</g>
<g>
</g>
<g>
</g>
<g>
</g>
</svg>
