<?xml version="1.0" encoding="iso-8859-1"?>
<!-- Generator: Adobe Illustrator 19.0.0, SVG Export Plug-In . SVG Version: 6.00 Build 0)  -->
<svg version="1.1" id="Capa_1" xmlns="http://www.w3.org/2000/svg" xmlns:xlink="http://www.w3.org/1999/xlink" x="0px" y="0px"
	 viewBox="0 0 511.999 511.999" style="enable-background:new 0 0 511.999 511.999;" xml:space="preserve">
<g>
	<g>
		<path d="M474.678,37.748c-4.688-4.683-9.609-9.006-14.622-12.848l-0.954-0.732c-0.609-0.58-1.257-1.123-1.938-1.624
			C436.847,7.585,414.557,0,390.912,0c-36.893,0-75.269,18.835-110.98,54.467c-0.348,0.348-0.683,0.708-1.005,1.08l-1.567,1.813
			l-1.819,1.573c-0.37,0.32-0.728,0.653-1.073,0.999C238.835,95.62,220,133.997,220,170.912c0,15.777,3.686,31.492,10.953,46.709
			c0.376,0.787,0.803,1.548,1.278,2.279c1.511,2.325,7.046,10.75,12.952,18.632l-82.326,82.326c-7.811,7.811-7.811,20.475,0,28.285
			C166.762,353.048,171.881,355,177,355s10.237-1.952,14.143-5.857l48.08-48.08c2.07,3.577,4.111,7.34,5.809,10.722
			c4.624,9.736,6.969,19.594,6.969,29.302c0,25.931-14.611,54.345-42.268,82.209l-2.354,2.035c-0.732,0.634-1.418,1.319-2.052,2.052
			l-2.026,2.345C175.415,457.385,146.998,472,121.087,472c-14.418,0-28.262-4.632-41.173-13.771
			c-0.41-0.373-0.837-0.729-1.278-1.067l-2.354-1.806c-3.638-2.788-7.236-5.954-10.696-9.409
			c-16.977-16.953-25.585-35.469-25.585-55.032c0-25.934,14.615-54.352,42.271-82.215l2.354-2.038
			c0.727-0.629,1.407-1.31,2.036-2.037l2.032-2.348c26.433-26.22,53.224-40.85,77.51-42.313
			c11.025-0.665,19.425-10.142,18.76-21.168c-0.665-11.025-10.149-19.432-21.168-18.76c-34.825,2.1-69.771,20.414-103.864,54.432
			c-0.345,0.346-0.678,0.703-0.997,1.072l-1.576,1.82l-1.824,1.579c-0.366,0.317-0.722,0.648-1.064,0.991
			c-35.635,35.688-54.47,74.065-54.47,110.984c0,30.568,12.557,58.607,37.321,83.337c4.688,4.683,9.609,9.006,14.622,12.848
			l0.954,0.732c0.609,0.58,1.257,1.123,1.938,1.624c20.317,14.959,42.607,22.544,66.252,22.544
			c36.893,0,75.269-18.835,110.98-54.467c0.348-0.348,0.683-0.708,1.005-1.08l1.567-1.813l1.819-1.573
			c0.37-0.32,0.728-0.653,1.073-0.999C273.165,416.379,292,378.002,292,341.087c0-15.775-3.686-31.49-10.953-46.707
			c-0.052-0.108-0.104-0.217-0.158-0.324c-1.358-2.717-6.47-12.729-12.584-22.075l80.838-80.838c7.811-7.811,7.811-20.475,0-28.285
			c-7.811-7.81-20.475-7.811-28.285,0l-47.04,47.04c-2.622-3.684-5.25-7.538-7.308-10.665c-4.32-9.416-6.51-18.938-6.51-28.321
			c0-25.931,14.611-54.345,42.268-82.209l2.354-2.035c0.732-0.634,1.418-1.319,2.052-2.052l2.026-2.345
			C336.584,54.614,365.001,40,390.912,40c14.418,0,28.262,4.632,41.173,13.771c0.41,0.373,0.837,0.729,1.278,1.067l2.354,1.806
			c3.638,2.788,7.236,5.954,10.696,9.409c16.977,16.953,25.585,35.469,25.585,55.032c0,25.935-14.612,54.351-42.271,82.216
			l-2.354,2.037c-0.727,0.629-1.407,1.31-2.036,2.037l-2.03,2.347c-25.71,25.486-52.845,39.769-78.512,41.316
			c-11.025,0.665-19.425,10.142-18.76,21.168c0.641,10.616,9.449,18.797,19.945,18.797c0.404,0,0.813-0.013,1.223-0.037
			c35.728-2.154,71.988-20.632,104.864-53.434c0.345-0.346,0.678-0.703,0.997-1.072l1.576-1.821l1.824-1.578
			c0.366-0.317,0.722-0.648,1.064-0.991c35.635-35.688,54.47-74.065,54.47-110.984C511.999,90.517,499.442,62.478,474.678,37.748z"
			/>
	</g>
</g>
<g>
</g>
<g>
</g>
<g>
</g>
<g>
</g>
<g>
</g>
<g>
</g>
<g>
</g>
<g>
</g>
<g>
</g>
<g>
</g>
<g>
</g>
<g>
</g>
<g>
</g>
<g>
</g>
<g>
</g>
</svg>
