<svg id="_005-motorcycle" data-name="005-motorcycle" xmlns="http://www.w3.org/2000/svg" width="66.462" height="50.61" viewBox="0 0 66.462 50.61">
  <g id="Grupo_14818" data-name="Grupo 14818" transform="translate(0 0)">
    <path id="Trazado_11047" data-name="Trazado 11047" d="M59.58,89.021c1.119-2.555-.009-5.717-3.209-12.105a11.706,11.706,0,0,0-4.99-5.159v-9.4a1.3,1.3,0,0,0-1.3-1.3H48.3a6.45,6.45,0,0,0-6.442,6.4A7.736,7.736,0,0,0,39.231,67h-2.89a1.3,1.3,0,1,0,0,2.6h2.89a5.253,5.253,0,0,1,4.874,3.4l4.443,12.051A10.706,10.706,0,0,1,38.5,99.449H29.67a6.718,6.718,0,0,0,1.437-4.157V77.9a5.021,5.021,0,0,0-4.824-5.028c-2.565-.107-5-.3-6.593-.447A2.436,2.436,0,0,0,17.378,76.1L19.3,79.327h-6.14A7.047,7.047,0,0,0,7.42,82.3L1.294,90.942a7.035,7.035,0,0,0,2.426,10.27q-.005.163-.005.325a10.132,10.132,0,0,0,20.251.508H33l-4.282,6.538a1.3,1.3,0,1,0,2.172,1.422l5.214-7.961h2.4a13.349,13.349,0,0,0,5.927-1.4c-.026.295-.04.591-.04.888a10.132,10.132,0,0,0,20.264,0q0-.507-.05-1.011h.558a1.3,1.3,0,0,0,1.3-1.295c.009-3.508-2.389-8.022-6.882-10.211ZM19.768,75.042c1.618.144,3.953.325,6.407.427A2.431,2.431,0,0,1,28.51,77.9v1.423H22.325ZM9.538,83.8a4.447,4.447,0,0,1,3.623-1.874H28.51V95.292a4.162,4.162,0,0,1-4.157,4.157h-.375V93.44a7.932,7.932,0,0,0-6.533-7.747,1.3,1.3,0,0,0-.553,2.537,5.324,5.324,0,0,1,4.49,5.211v6.008H7.036a4.44,4.44,0,0,1-3.622-7.007Zm4.309,25.276a7.546,7.546,0,0,1-7.522-7.063,7.085,7.085,0,0,0,.712.036H21.365a7.544,7.544,0,0,1-7.518,7.027Zm49.9-11.142H48.12a13.394,13.394,0,0,0,3.525-7.14,9.761,9.761,0,0,1,4.683-.177A9.624,9.624,0,0,1,63.747,97.93Zm-9.7-19.851c3.333,6.654,3.756,8.7,3.078,10.054a12.272,12.272,0,0,0-5.34-.046,13.312,13.312,0,0,0-.8-3.939l-3.8-10.3a15.852,15.852,0,0,0,2.709.1,8.711,8.711,0,0,1,4.154,4.134ZM48.3,63.654h.48v7.694a5.091,5.091,0,0,1-1.824-.242A3.847,3.847,0,0,1,48.3,63.654Zm13.755,37.883a7.536,7.536,0,1,1-15-1.011H61.992a7.621,7.621,0,0,1,.067,1.011Z" transform="translate(0 -61.058)" fill="#25669e"/>
    <path id="Trazado_11048" data-name="Trazado 11048" d="M79.741,251.077a1.3,1.3,0,1,0,.531-1.61A1.308,1.308,0,0,0,79.741,251.077Z" transform="translate(-69.305 -224.853)" fill="#25669e"/>
  </g>
</svg>
