<svg id="_012-package" data-name="012-package" xmlns="http://www.w3.org/2000/svg" width="18.855" height="17.173" viewBox="0 0 18.855 17.173">
  <g id="Grupo_156" data-name="Grupo 156" transform="translate(5.403 3.407)">
    <g id="Grupo_155" data-name="Grupo 155">
      <path id="Trazado_90" data-name="Trazado 90" d="M150.641,113.639v2.953h-2.529v-2.953h-1.38v3.634a.686.686,0,0,0,.69.681h3.909a.686.686,0,0,0,.69-.681v-3.634Z" transform="translate(-146.732 -113.639)" fill="#da5d48"/>
    </g>
  </g>
  <g id="Grupo_158" data-name="Grupo 158" transform="translate(0 0)">
    <g id="Grupo_157" data-name="Grupo 157">
      <path id="Trazado_91" data-name="Trazado 91" d="M18.165,19.981H3.449a.694.694,0,0,0-.488.2L.2,22.906a.677.677,0,0,0-.2.482V36.472a.686.686,0,0,0,.69.681H15.406a.694.694,0,0,0,.488-.2l2.759-2.726a.676.676,0,0,0,.2-.482V20.662A.686.686,0,0,0,18.165,19.981Zm-.69,13.483L15.12,35.791H1.38V23.671l2.355-2.327h13.74v12.12Z" transform="translate(0 -19.981)" fill="#da5d48"/>
    </g>
  </g>
  <g id="Grupo_160" data-name="Grupo 160" transform="translate(0.69 0.2)">
    <g id="Grupo_159" data-name="Grupo 159">
      <path id="Trazado_92" data-name="Trazado 92" d="M35.719,25.469,33.162,28H18.732v1.363H33.448a.693.693,0,0,0,.488-.2l2.759-2.726Z" transform="translate(-18.732 -25.469)" fill="#da5d48"/>
    </g>
  </g>
  <g id="Grupo_162" data-name="Grupo 162" transform="translate(14.716 3.407)">
    <g id="Grupo_161" data-name="Grupo 161">
      <rect id="Rectángulo_91" data-name="Rectángulo 91" width="1.38" height="13.084" fill="#da5d48"/>
    </g>
  </g>
</svg>
