<svg id="_011-paper-plane" data-name="011-paper-plane" xmlns="http://www.w3.org/2000/svg" width="21.398" height="21.139" viewBox="0 0 21.398 21.139">
  <g id="Grupo_150" data-name="Grupo 150" transform="translate(0 0)">
    <g id="Grupo_149" data-name="Grupo 149">
      <path id="Trazado_88" data-name="Trazado 88" d="M21.385.595a.719.719,0,0,0-.2-.371c-.017-.017-.034-.032-.052-.047a.735.735,0,0,0-.456-.167h0a.709.709,0,0,0-.1.005h0A.732.732,0,0,0,20.312.1L.388,10.542a.719.719,0,0,0,.061,1.3l6.239,2.576a.738.738,0,0,0,.789-.146L14.5,7.6,8.946,14.862A.717.717,0,0,0,9.119,15.9l7.263,4.863a.739.739,0,0,0,.689.07.724.724,0,0,0,.439-.528L21.382.884A.73.73,0,0,0,21.4.745.7.7,0,0,0,21.385.595ZM6.809,12.907l-4.37-1.8L16.4,3.784Zm9.479,6.044-5.712-3.825L19.336,3.671Z" transform="translate(0 -0.009)" fill="#016cff"/>
    </g>
  </g>
  <g id="Grupo_152" data-name="Grupo 152" transform="translate(6.249 13.632)">
    <g id="Grupo_151" data-name="Grupo 151">
      <path id="Trazado_89" data-name="Trazado 89" d="M154.576,332.827l-2.747,2.643-.871-5.3-1.444.232,1.1,6.669a.725.725,0,0,0,.492.57.739.739,0,0,0,.74-.168l3.753-3.611Z" transform="translate(-149.514 -330.171)" fill="#016cff"/>
    </g>
  </g>
  <g id="Grupo_154" data-name="Grupo 154" transform="translate(7.363 15.083)">
    <g id="Grupo_153" data-name="Grupo 153" transform="translate(0 0)">
      <path id="Trazado_211" data-name="Trazado 211" d="M0,0,5.333.017l0,1.461L0,1.461Z" transform="translate(0 5.137) rotate(-74.264)" fill="#016cff"/>
    </g>
  </g>
</svg>
