<?xml version="1.0" encoding="iso-8859-1"?>
<!-- Generator: Adobe Illustrator 19.0.0, SVG Export Plug-In . SVG Version: 6.00 Build 0)  -->
<svg version="1.1" id="Capa_1" xmlns="http://www.w3.org/2000/svg" xmlns:xlink="http://www.w3.org/1999/xlink" x="0px" y="0px"
	 viewBox="0 0 511.999 511.999" style="enable-background:new 0 0 511.999 511.999;" xml:space="preserve">
<g>
	<g>
		<g>
			<path d="M267.998,61.092c0.337,0,0.665-0.002,1-0.002c48.74,0,94.412,18.844,128.686,53.118
				c34.557,34.557,53.459,80.618,53.225,129.697c-0.052,11.045,8.859,20.042,19.905,20.095c0.033,0,0.064,0,0.097,0
				c10.999,0,19.944-8.892,19.997-19.905c0.285-59.837-22.778-116.009-64.94-158.172C384.134,44.088,328.43,21.09,269.004,21.09
				c-0.365,0-0.733,0.001-1.099,0.002c-11.046,0.053-19.957,9.05-19.905,20.095C248.053,52.2,256.997,61.092,267.998,61.092z"/>
			<path d="M511.949,412.553c-0.714-19.805-8.964-38.287-23.229-52.042c-27.931-26.933-51.332-42.481-73.646-48.929
				c-30.75-8.887-59.226-0.805-84.641,24.016c-0.038,0.037-0.077,0.075-0.115,0.113l-27.066,26.865
				c-16.811-9.444-49.491-30.227-85.234-65.971l-2.632-2.63c-35.508-35.507-56.423-68.373-65.939-85.253l26.839-27.041
				c0.038-0.038,0.075-0.076,0.113-0.115c24.821-25.414,32.902-53.892,24.016-84.64c-6.448-22.313-21.995-45.715-48.929-73.646
				C137.731,9.015,119.249,0.765,99.446,0.051C79.647-0.662,60.614,6.232,45.865,19.472l-0.574,0.516
				c-0.267,0.239-0.527,0.486-0.78,0.739c-29.36,29.358-44.75,70.46-44.508,118.861c0.41,82.22,45.599,176.249,120.879,251.528
				c0.063,0.063,0.125,0.124,0.188,0.186c14.152,14.132,30.22,28.116,47.762,41.567c8.765,6.721,21.319,5.063,28.041-3.702
				c6.721-8.766,5.064-21.32-3.702-28.041c-16.236-12.448-31.041-25.333-44.004-38.296c-0.062-0.062-0.124-0.124-0.187-0.185
				C81.095,294.683,40.361,211.239,40.002,139.387c-0.186-37.276,11.027-68.389,32.431-90.014l0.153-0.138
				c14.538-13.048,36.548-12.254,50.108,1.808c51.781,53.698,48.031,79.049,25.151,102.511l-37.074,37.353
				c-5.814,5.858-7.433,14.686-4.075,22.226c0.941,2.114,23.709,52.427,80.414,109.132l2.632,2.629
				c56.698,56.699,107.011,79.466,109.125,80.408c7.54,3.359,16.368,1.739,22.226-4.075l37.346-37.068
				c23.466-22.883,48.818-26.638,102.518,25.145c14.062,13.56,14.856,35.57,1.81,50.105l-0.141,0.157
				c-21.45,21.229-52.231,32.433-89.102,32.433c-0.303,0-0.608,0-0.912-0.002c-29.471-0.147-63.598-8.226-98.689-23.362
				c-10.142-4.376-21.911,0.3-26.286,10.443c-4.375,10.142,0.301,21.911,10.443,26.286c40.562,17.496,79.029,26.456,114.332,26.633
				c0.375,0.001,0.748,0.002,1.122,0.002c47.914-0.001,88.608-15.379,117.738-44.51c0.254-0.254,0.5-0.513,0.739-0.78l0.519-0.577
				C505.766,451.385,512.663,432.357,511.949,412.553z"/>
			<path d="M369.457,142.549c-21.453-21.454-42.043-27.147-51.939-29.884c-10.649-2.945-21.663,3.299-24.607,13.946
				c-2.944,10.646,3.299,21.663,13.946,24.607c8.092,2.238,20.32,5.62,34.316,19.615c13.473,13.473,17.052,25.636,19.421,33.685
				l0.289,0.979c2.574,8.697,10.538,14.329,19.169,14.329c1.88,0.001,3.792-0.267,5.686-0.828
				c10.591-3.135,16.636-14.263,13.5-24.854l-0.271-0.918C395.882,182.744,390.14,163.232,369.457,142.549z"/>
		</g>
	</g>
</g>
<g>
</g>
<g>
</g>
<g>
</g>
<g>
</g>
<g>
</g>
<g>
</g>
<g>
</g>
<g>
</g>
<g>
</g>
<g>
</g>
<g>
</g>
<g>
</g>
<g>
</g>
<g>
</g>
<g>
</g>
</svg>
