<?xml version="1.0" encoding="iso-8859-1"?>
<!-- Generator: Adobe Illustrator 19.0.0, SVG Export Plug-In . SVG Version: 6.00 Build 0)  -->
<svg version="1.1" id="Capa_1" xmlns="http://www.w3.org/2000/svg" xmlns:xlink="http://www.w3.org/1999/xlink" x="0px" y="0px"
	 viewBox="0 0 512 512" style="enable-background:new 0 0 512 512;" xml:space="preserve">
<g>
	<g>
		<path d="M492,350.5c11.046,0,20-8.954,20-20v-122c0-44.112-35.888-80-80-80h-44.809c5.453-20.743,8.809-40.271,8.809-52
			c0-41.907-34.094-76-76-76s-76,34.093-76,76c0,11.729,3.357,31.258,8.809,52H208c-44.112,0-80,35.888-80,80v31.809
			c-20.743-5.453-40.271-8.809-52-8.809c-41.906,0-76,34.093-76,76c0,41.907,34.094,76,76,76c11.069,0,30.489-2.468,52-7.887V431.5
			c0,44.112,35.888,80,80,80h58c9.563,0,18.324-4.396,24.036-12.063c5.643-7.573,7.399-17.504,4.695-26.567
			C286.913,446.673,284,426.231,284,419.5c0-19.851,16.149-36,36-36s36,16.149,36,36c0,6.731-2.913,27.173-10.731,53.371
			c-2.704,9.061-0.949,18.993,4.695,26.566c5.712,7.667,14.473,12.063,24.036,12.063h58c44.112,0,80-35.888,80-80
			c0-11.046-8.954-20-20-20c-11.046,0-20,8.954-20,20c0,22.056-17.944,40-40,40h-44.809c5.453-20.743,8.809-40.271,8.809-52
			c0-41.907-34.094-76-76-76s-76,34.093-76,76c0,11.729,3.357,31.258,8.809,52H208c-22.056,0-40-17.944-40-40v-69.005
			c0-9.563-4.396-18.325-12.064-24.037c-7.573-5.644-17.504-7.4-26.565-4.694C105.433,340.907,84.338,343.5,76,343.5
			c-19.851,0-36-16.149-36-36s16.149-36,36-36c6.73,0,27.172,2.914,53.372,10.732c9.057,2.703,18.991,0.949,26.565-4.695
			C163.604,271.825,168,263.063,168,253.5v-45c0-22.056,17.944-40,40-40h58c9.563,0,18.324-4.396,24.036-12.063
			c5.643-7.573,7.399-17.504,4.695-26.567C286.913,103.673,284,83.231,284,76.5c0-19.851,16.149-36,36-36s36,16.149,36,36
			c0,6.731-2.913,27.173-10.731,53.371c-2.704,9.061-0.949,18.993,4.695,26.566c5.712,7.667,14.473,12.063,24.036,12.063h58
			c22.056,0,40,17.944,40,40v122C472,341.546,480.954,350.5,492,350.5z"/>
	</g>
</g>
<g>
</g>
<g>
</g>
<g>
</g>
<g>
</g>
<g>
</g>
<g>
</g>
<g>
</g>
<g>
</g>
<g>
</g>
<g>
</g>
<g>
</g>
<g>
</g>
<g>
</g>
<g>
</g>
<g>
</g>
</svg>
