<?xml version="1.0" encoding="iso-8859-1"?>
<!-- Generator: Adobe Illustrator 19.0.0, SVG Export Plug-In . SVG Version: 6.00 Build 0)  -->
<svg version="1.1" id="Capa_1" xmlns="http://www.w3.org/2000/svg" xmlns:xlink="http://www.w3.org/1999/xlink" x="0px" y="0px"
	 viewBox="0 0 512 512" style="enable-background:new 0 0 512 512;" xml:space="preserve">
<g>
	<g>
		<g>
			<path d="M437.02,74.98C388.667,26.629,324.38,0,256,0S123.333,26.629,74.98,74.98C26.629,123.333,0,187.62,0,256
				s26.629,132.667,74.98,181.02C123.333,485.371,187.62,512,256,512c46.813,0,92.618-12.758,132.462-36.894
				c9.448-5.724,12.467-18.022,6.744-27.469c-5.723-9.449-18.021-12.467-27.468-6.744c-15.79,9.565-32.694,17.011-50.279,22.216
				l-3.461-17.048c-2.198-10.824-12.751-17.815-23.58-15.621c-10.825,2.198-17.819,12.755-15.621,23.58l3.419,16.841
				C270.86,471.618,263.446,472,256,472c-7.304,0-14.525-0.365-21.644-1.076l3.183-16.684c2.07-10.85-5.047-21.324-15.897-23.394
				c-10.854-2.074-21.324,5.046-23.394,15.897l-3.151,16.515c-15.045-4.428-29.413-10.454-42.906-17.88l9.216-13.754
				c6.148-9.176,3.693-21.6-5.483-27.747c-9.178-6.149-21.601-3.694-27.748,5.483l-9.097,13.578
				c-10.585-8.698-20.332-18.38-29.099-28.907l13.292-9.033c9.136-6.209,11.509-18.647,5.301-27.783s-18.648-11.508-27.783-5.301
				l-13.47,9.154c-7.53-13.469-13.66-27.822-18.191-42.862l15.81-3.21c10.825-2.197,17.819-12.754,15.621-23.579
				c-2.198-10.824-12.757-17.823-23.58-15.62l-15.764,3.2C40.412,271.439,40,263.767,40,256c0-6.905,0.326-13.735,0.963-20.476
				l15.798,3.014c1.267,0.242,2.528,0.358,3.771,0.358c9.41,0,17.795-6.672,19.623-16.256c2.071-10.851-5.047-21.325-15.897-23.394
				l-15.845-3.023c4.326-15,10.238-29.335,17.541-42.811l13.422,8.993c3.419,2.291,7.286,3.387,11.114,3.387
				c6.447,0,12.777-3.112,16.634-8.87c6.148-9.176,3.693-21.599-5.483-27.747l-13.46-9.018c8.929-11.01,18.917-21.127,29.808-30.195
				l9.183,13.513c3.87,5.694,10.159,8.761,16.56,8.761c3.87,0,7.781-1.121,11.223-3.46c9.136-6.209,11.509-18.647,5.301-27.783
				l-9.301-13.687c13.123-7.335,27.087-13.34,41.706-17.833l3.343,16.465c1.925,9.482,10.264,16.024,19.579,16.024
				c1.318,0,2.657-0.131,4-0.403c10.825-2.198,17.819-12.755,15.621-23.58l-3.378-16.635C239.763,40.456,247.829,40,256,40
				c6.633,0,13.198,0.301,19.68,0.889l-3.219,16.871c-2.07,10.85,5.047,21.324,15.897,23.394c1.268,0.242,2.527,0.358,3.771,0.358
				c9.41,0,17.795-6.672,19.624-16.256l3.256-17.064c15.189,4.319,29.701,10.263,43.336,17.63l-9.751,14.553
				c-6.148,9.176-3.693,21.6,5.483,27.747c3.419,2.29,7.287,3.387,11.114,3.387c6.447,0,12.776-3.111,16.634-8.87l9.804-14.633
				c11.161,9.029,21.409,19.145,30.579,30.186l-13.513,9.183c-9.136,6.208-11.509,18.647-5.301,27.783
				c3.87,5.695,10.158,8.761,16.56,8.761c3.869,0,7.782-1.121,11.223-3.46l13.647-9.273c7.402,13.281,13.442,27.419,17.933,42.225
				l-17.694,3.593c-10.825,2.197-17.819,12.754-15.621,23.579c1.925,9.482,10.264,16.024,19.579,16.024c1.318,0,2.658-0.131,4-0.404
				l17.721-3.598C471.573,240.292,472,248.097,472,256c0,6.986-0.341,13.942-1.016,20.847l-17.744-3.385
				c-10.855-2.078-21.324,5.046-23.394,15.897c-2.071,10.851,5.047,21.325,15.897,23.394l17.633,3.364
				c-4.387,14.973-10.418,29.497-18.025,43.343l-14.726-9.866c-9.179-6.152-21.601-3.694-27.748,5.483
				c-6.148,9.176-3.693,21.599,5.483,27.747l29.908,20.038c2.156,1.445,4.49,2.414,6.881,2.933
				c8.462,3.092,18.248,0.143,23.477-7.679C497.001,355.674,512,306.53,512,256C512,187.62,485.371,123.333,437.02,74.98z"/>
			<path d="M332.173,146.58l-117,66c-3.228,1.821-5.886,4.503-7.678,7.746l-63,114c-4.243,7.679-2.987,17.227,3.098,23.546
				c3.863,4.013,9.1,6.129,14.414,6.129c3.056,0,6.138-0.7,8.999-2.143l111.974-56.465c7.133-3.597,11.257-5.678,14.06-11.732
				l62.701-120.425c4.089-7.853,2.528-17.459-3.836-23.614C349.539,143.469,339.886,142.231,332.173,146.58z M264.237,270.047
				c-10.028,5.058-31.77,16.021-53.398,26.928l28.924-52.34l53.384-30.114L264.237,270.047z"/>
		</g>
	</g>
</g>
<g>
</g>
<g>
</g>
<g>
</g>
<g>
</g>
<g>
</g>
<g>
</g>
<g>
</g>
<g>
</g>
<g>
</g>
<g>
</g>
<g>
</g>
<g>
</g>
<g>
</g>
<g>
</g>
<g>
</g>
</svg>
