<svg xmlns="http://www.w3.org/2000/svg" width="21.012" height="15.84" viewBox="0 0 21.012 15.84">
  <g id="_001-scooter" data-name="001-scooter" transform="translate(0 -0.5)">
    <path id="Trazado_10161" data-name="Trazado 10161" d="M208.942,366.453a.41.41,0,1,0,.29.12A.413.413,0,0,0,208.942,366.453Zm0,0" transform="translate(-199.973 -350.935)" fill="#fff"/>
    <path id="Trazado_10162" data-name="Trazado 10162" d="M17.142,8.628l-.956-4.321a1.024,1.024,0,0,0,.646-.356,1.224,1.224,0,0,0,.651.187H18.3a.41.41,0,0,0,.41-.41V2.086a.41.41,0,0,0-.41-.41h-.821a1.223,1.223,0,0,0-.668.2,1.022,1.022,0,0,0-.767-.347H13.625a1.026,1.026,0,0,0-.956.657H11.7a1.067,1.067,0,1,0,0,2.134h2.112v.827a.41.41,0,0,0,.821,0V4.317h.718l1.03,4.655-1.95,3.473a1.205,1.205,0,0,1-1.049.613H8.512a3.453,3.453,0,0,0-3.423-3.038,3.414,3.414,0,0,0-2.128.735l0,0a3.427,3.427,0,0,0-1.294,2.3H.822A5.44,5.44,0,0,1,6.255,7.723H9.166a.417.417,0,0,1,.417.417v3.686a.41.41,0,0,0,.41.41h2.184a2.448,2.448,0,0,0,2.448-2.445l0-1.363a.41.41,0,0,0-.41-.411h0a.41.41,0,0,0-.41.41l0,1.364a1.626,1.626,0,0,1-1.627,1.625H10.4V8.14a1.231,1.231,0,0,0-.146-.582,1.231,1.231,0,0,0-.614-2.3h-1.5a1.225,1.225,0,0,0-.41.071v-3.6A1.233,1.233,0,0,0,6.5.5H3.857A3.863,3.863,0,0,0,.048,3.747a.41.41,0,0,0-.019.124s0,0,0,.007A3.876,3.876,0,0,0,0,4.357V6.492A1.233,1.233,0,0,0,1.047,7.709l.909.909A6.238,6.238,0,0,0,0,13.157v.31a.41.41,0,0,0,.41.41H2.717a.419.419,0,0,0-.008.082,2.369,2.369,0,0,0,.583,1.558H.41a.41.41,0,1,0,0,.821H5.089a2.383,2.383,0,0,0,2.38-2.38.419.419,0,0,0-.008-.082h5.918a2.028,2.028,0,0,0,1.629-.822h.52a2.373,2.373,0,0,0,.4,2.462H10.61a.41.41,0,1,0,0,.821h7.119a2.379,2.379,0,0,0,2.2-3.284H20.6a.41.41,0,0,0,.41-.41A4.025,4.025,0,0,0,17.142,8.628Zm-9-2.547h1.5a.41.41,0,0,1,0,.821h-1.5a.41.41,0,1,1,0-.821ZM.821,4.357c0-.025,0-.05,0-.076H5.313a.41.41,0,1,0,0-.821H.956a3.041,3.041,0,0,1,2.9-2.139H6.5a.411.411,0,0,1,.41.41V6.492a.411.411,0,0,1-.41.41H1.231a.411.411,0,0,1-.41-.41Zm1.4,3.366h.939a6.25,6.25,0,0,0-.571.369ZM6.648,13.96A1.561,1.561,0,0,1,5.1,15.519H5.042A1.561,1.561,0,0,1,3.529,13.96a.419.419,0,0,0-.008-.082H6.656A.419.419,0,0,0,6.648,13.96Zm-4.155-.9A2.611,2.611,0,0,1,3.466,11.4l0,0a2.6,2.6,0,0,1,1.619-.558,2.632,2.632,0,0,1,2.6,2.217ZM17.483,2.5h.41v.821h-.41a.41.41,0,1,1,0-.821ZM11.45,3.25A.247.247,0,0,1,11.7,3h.9v.289a1.029,1.029,0,0,0,.02.2H11.7A.247.247,0,0,1,11.45,3.25Zm2.769.246h-.594a.2.2,0,0,1-.2-.2V2.551a.2.2,0,0,1,.2-.2h2.423a.2.2,0,0,1,.2.2v.741a.2.2,0,0,1-.2.2ZM19.288,13.96a1.561,1.561,0,0,1-1.544,1.559h-.063a1.559,1.559,0,0,1-1.223-2.462H19A1.557,1.557,0,0,1,19.288,13.96Zm-3.8-1.725,1.565-2.787a3.2,3.2,0,0,1,3.113,2.787Zm0,0" fill="#fff"/>
    <path id="Trazado_10163" data-name="Trazado 10163" d="M336.864,144.489a.41.41,0,0,0,0-.821h0a.41.41,0,1,0,0,.821Zm0,0" transform="translate(-322.645 -137.293)" fill="#fff"/>
  </g>
</svg>
