<svg id="_018-shipping" data-name="018-shipping" xmlns="http://www.w3.org/2000/svg" width="13.212" height="23.7" viewBox="0 0 13.212 23.7">
  <g id="Grupo_232" data-name="Grupo 232" transform="translate(3.402 2.208)">
    <g id="Grupo_231" data-name="Grupo 231">
      <path id="Trazado_119" data-name="Trazado 119" d="M191.576,49.922V48.437a.745.745,0,0,0-1.49,0v2.134a.741.741,0,0,0,.745.736A1.693,1.693,0,1,1,189.117,53a.745.745,0,0,0-1.49,0,3.2,3.2,0,1,0,3.949-3.079Z" transform="translate(-187.627 -47.701)" fill="#da5d48"/>
    </g>
  </g>
  <g id="Grupo_234" data-name="Grupo 234" transform="translate(1.372 9.225)">
    <g id="Grupo_233" data-name="Grupo 233">
      <path id="Trazado_120" data-name="Trazado 120" d="M149.987,199.452a.752.752,0,0,0-.932,0l-4.768,3.778.932,1.148,4.3-3.409,4.3,3.409.932-1.148Z" transform="translate(-144.287 -199.29)" fill="#da5d48"/>
    </g>
  </g>
  <g id="Grupo_236" data-name="Grupo 236" transform="translate(3.402)">
    <g id="Grupo_235" data-name="Grupo 235">
      <path id="Trazado_121" data-name="Trazado 121" d="M193.264,0h-4.892a.741.741,0,0,0-.745.736V2.9a.741.741,0,0,0,.745.736h4.892a.741.741,0,0,0,.745-.736V.736A.741.741,0,0,0,193.264,0Zm-.745,2.159h-3.4V1.472h3.4Z" transform="translate(-187.627)" fill="#da5d48"/>
    </g>
  </g>
  <g id="Grupo_238" data-name="Grupo 238" transform="translate(0 13.028)">
    <g id="Grupo_237" data-name="Grupo 237">
      <path id="Trazado_122" data-name="Trazado 122" d="M127.481,281.441H115.759a.741.741,0,0,0-.745.736v9.2a.741.741,0,0,0,.745.736h11.722a.741.741,0,0,0,.745-.736v-9.2A.741.741,0,0,0,127.481,281.441Zm-.745,9.2H116.5v-7.728h10.232v7.728Z" transform="translate(-115.014 -281.441)" fill="#da5d48"/>
    </g>
  </g>
  <g id="Grupo_240" data-name="Grupo 240" transform="translate(4.023 13.764)">
    <g id="Grupo_239" data-name="Grupo 239">
      <path id="Trazado_123" data-name="Trazado 123" d="M204.554,297.342V299.3h-2.185v-1.963h-1.49v2.7a.741.741,0,0,0,.745.736H205.3a.741.741,0,0,0,.745-.736v-2.7Z" transform="translate(-200.878 -297.342)" fill="#da5d48"/>
    </g>
  </g>
</svg>
