<?xml version="1.0" encoding="iso-8859-1"?>
<!-- Generator: Adobe Illustrator 19.0.0, SVG Export Plug-In . SVG Version: 6.00 Build 0)  -->
<svg version="1.1" id="Capa_1" xmlns="http://www.w3.org/2000/svg" xmlns:xlink="http://www.w3.org/1999/xlink" x="0px" y="0px"
	 viewBox="0 0 512 512" style="enable-background:new 0 0 512 512;" xml:space="preserve">
<g>
	<g>
		<path d="M494.246,359.453L432.084,297.8c-7.843-7.778-20.506-7.727-28.284,0.116c-7.778,7.843-7.726,20.506,0.116,28.284
			l57.268,56.8h-24.406c-57.757,0-111.05-24.989-146.214-68.561c-6.937-8.597-19.529-9.94-28.124-3.003
			c-8.596,6.937-9.94,19.528-3.003,28.124C302.232,392.588,366.87,423,436.778,423h22.39l-55.252,54.8
			c-7.842,7.778-7.895,20.441-0.116,28.284c3.911,3.942,9.054,5.916,14.201,5.916c5.09,0,10.184-1.932,14.083-5.8l62.162-61.653
			C505.695,433.192,512,418.081,512,402S505.695,370.809,494.246,359.453z"/>
	</g>
</g>
<g>
	<g>
		<path d="M494.246,67.453L432.084,5.8c-7.843-7.778-20.506-7.727-28.284,0.116c-7.778,7.843-7.726,20.506,0.116,28.284L459.168,89
			h-22.39c-81.666,0-157.271,43.051-197.313,112.351l-8.476,14.671l-13.676-23.671C177.272,123.051,101.666,80,20,80
			C8.954,80,0,88.954,0,100s8.954,20,20,20c67.426,0,129.761,35.391,162.678,92.362L207.89,256l-25.213,43.638
			C149.761,356.61,87.426,392,20,392c-11.046,0-20,8.954-20,20c0,11.046,8.954,20,20,20c81.666,0,157.271-43.051,197.313-112.351
			l30.82-53.342c0.112-0.187,0.221-0.376,0.327-0.567l25.64-44.378C307.017,164.391,369.352,129,436.778,129h24.406l-57.268,56.8
			c-7.842,7.778-7.895,20.441-0.116,28.284c3.911,3.942,9.054,5.916,14.201,5.916c5.09,0,10.184-1.932,14.083-5.8l62.162-61.653
			C505.695,141.192,512,126.081,512,110S505.695,78.809,494.246,67.453z"/>
	</g>
</g>
<g>
</g>
<g>
</g>
<g>
</g>
<g>
</g>
<g>
</g>
<g>
</g>
<g>
</g>
<g>
</g>
<g>
</g>
<g>
</g>
<g>
</g>
<g>
</g>
<g>
</g>
<g>
</g>
<g>
</g>
</svg>
