<?xml version="1.0" encoding="iso-8859-1"?>
<!-- Generator: Adobe Illustrator 19.0.0, SVG Export Plug-In . SVG Version: 6.00 Build 0)  -->
<svg version="1.1" id="Capa_1" xmlns="http://www.w3.org/2000/svg" xmlns:xlink="http://www.w3.org/1999/xlink" x="0px" y="0px"
	 viewBox="0 0 512 512" style="enable-background:new 0 0 512 512;" xml:space="preserve">
<g>
	<g>
		<g>
			<path d="M300.672,426.794l-24.171-24.231V266.888l115.417-68.486l74.41,19.919c1.734,0.464,3.472,0.685,5.185,0.685
				c8.832,0,16.915-5.896,19.307-14.833c2.857-10.67-3.477-21.636-14.147-24.492l-36.665-9.815l29.771-17.665
				c9.499-5.637,12.631-17.907,6.994-27.406c-5.636-9.5-17.906-12.63-27.406-6.994l-28.248,16.762
				c3.379-13.354,6.697-26.463,8.771-34.654c2.711-10.708-3.772-21.586-14.48-24.297c-10.706-2.711-21.586,3.772-24.297,14.479
				l-18.536,73.275l-96.076,57.01V109.528l55.043-54.289c7.864-7.756,7.952-20.419,0.195-28.283
				c-7.755-7.865-20.421-7.952-28.283-0.195L276.5,53.347V20c0-11.046-8.954-20-20-20c-11.046,0-20,8.954-20,20v33.355
				c-10.332-10.193-20.62-20.344-26.952-26.592c-7.863-7.758-20.525-7.673-28.284,0.189c-7.758,7.863-7.674,20.526,0.188,28.284
				l55.048,54.296v110.925l-96.063-56.744l-19.59-74.786c-2.802-10.685-13.734-17.075-24.418-14.274
				c-10.685,2.801-17.076,13.733-14.275,24.418c2.21,8.431,5.768,22.003,9.371,35.751l-28.852-17.043
				c-9.51-5.618-21.775-2.463-27.393,7.048c-5.617,9.511-2.462,21.774,7.049,27.392l29.287,17.3l-36.01,9.088
				c-10.709,2.703-17.2,13.576-14.497,24.286c2.288,9.068,10.433,15.111,19.377,15.111c1.619,0,3.266-0.199,4.909-0.613
				l75.155-18.967l96.692,57.115l-97.353,57.768l-74.276-19.643c-10.685-2.826-21.626,3.544-24.448,14.222
				c-2.824,10.678,3.543,21.625,14.222,24.449l36.271,9.592L43.223,358.8c-9.499,5.637-12.631,17.907-6.994,27.406
				c3.738,6.298,10.391,9.797,17.219,9.797c3.471,0,6.987-0.904,10.188-2.803l27.875-16.542
				c-3.592,13.545-7.137,26.906-9.341,35.212c-2.833,10.676,3.525,21.627,14.201,24.46c1.72,0.456,3.445,0.674,5.143,0.674
				c8.849,0,16.941-5.917,19.318-14.875l19.782-74.607l95.887-56.898v111.848l-55.044,54.289
				c-7.864,7.756-7.952,20.419-0.195,28.283c3.913,3.968,9.075,5.956,14.24,5.956c5.071,0,10.147-1.918,14.043-5.761l26.956-26.586
				V492c0,11.046,8.954,20,20,20c11.046,0,20-8.954,20-20v-32.796c9.934,9.964,19.745,19.805,25.835,25.915
				c3.908,3.92,9.035,5.88,14.165,5.88c5.107,0,10.217-1.944,14.119-5.835c7.823-7.798,7.844-20.461,0.046-28.284L300.672,426.794z"
				/>
			<path d="M466.329,293.68l-72.851,19.502l-50.805-30.01c-9.51-5.617-21.774-2.463-27.392,7.048
				c-5.618,9.511-2.463,21.774,7.048,27.392l49.926,29.49l19.899,75.969c2.356,8.985,10.46,14.933,19.333,14.933
				c1.679,0,3.386-0.213,5.085-0.659c10.686-2.801,17.076-13.733,14.275-24.418c-2.273-8.672-5.973-22.786-9.681-36.934
				l29.162,17.226c3.192,1.886,6.695,2.783,10.153,2.783c6.842,0,13.507-3.513,17.238-9.831c5.618-9.511,2.463-21.774-7.048-27.392
				l-28.954-17.103l34.954-9.357c10.67-2.856,17.004-13.822,14.147-24.492C487.964,297.158,476.995,290.822,466.329,293.68z"/>
		</g>
	</g>
</g>
<g>
</g>
<g>
</g>
<g>
</g>
<g>
</g>
<g>
</g>
<g>
</g>
<g>
</g>
<g>
</g>
<g>
</g>
<g>
</g>
<g>
</g>
<g>
</g>
<g>
</g>
<g>
</g>
<g>
</g>
</svg>
