<?xml version="1.0" encoding="iso-8859-1"?>
<!-- Generator: Adobe Illustrator 19.0.0, SVG Export Plug-In . SVG Version: 6.00 Build 0)  -->
<svg version="1.1" id="Capa_1" xmlns="http://www.w3.org/2000/svg" xmlns:xlink="http://www.w3.org/1999/xlink" x="0px" y="0px"
	 viewBox="0 0 512 512" style="enable-background:new 0 0 512 512;" xml:space="preserve">
<g>
	<g>
		<path d="M437.02,74.98C388.667,26.629,324.38,0,256,0S123.333,26.629,74.98,74.98C26.629,123.333,0,187.62,0,256
			s26.629,132.667,74.98,181.02C123.333,485.371,187.62,512,256,512c46.812,0,92.616-12.757,132.462-36.893
			c9.447-5.722,12.467-18.021,6.744-27.468c-5.724-9.449-18.022-12.468-27.469-6.745C334.143,461.244,295.504,472,256,472
			c-119.103,0-216-96.897-216-216S136.897,40,256,40s216,96.897,216,216c0,42.589-12.665,84.044-36.626,119.885
			c-6.139,9.182-3.672,21.603,5.51,27.742c9.184,6.14,21.604,3.671,27.742-5.511C497.002,355.674,512,306.531,512,256
			C512,187.62,485.371,123.333,437.02,74.98z"/>
	</g>
</g>
<g>
	<g>
		<path d="M316,303H196c-11.046,0-20,8.954-20,20c0,11.046,8.954,20,20,20h120c11.046,0,20-8.954,20-20
			C336,311.954,327.046,303,316,303z"/>
	</g>
</g>
<g>
	<g>
		<path d="M345,151c-27.57,0-50,22.43-50,50c0,11.046,8.954,20,20,20c11.046,0,20-8.954,20-20c0-5.514,4.486-10,10-10
			c5.514,0,10,4.486,10,10c0,11.046,8.954,20,20,20c11.046,0,20-8.954,20-20C395,173.43,372.57,151,345,151z"/>
	</g>
</g>
<g>
	<g>
		<path d="M168,151c-27.57,0-50,22.43-50,50c0,11.046,8.954,20,20,20s20-8.954,20-20c0-5.514,4.486-10,10-10c5.514,0,10,4.486,10,10
			c0,11.046,8.954,20,20,20s20-8.954,20-20C218,173.43,195.57,151,168,151z"/>
	</g>
</g>
<g>
</g>
<g>
</g>
<g>
</g>
<g>
</g>
<g>
</g>
<g>
</g>
<g>
</g>
<g>
</g>
<g>
</g>
<g>
</g>
<g>
</g>
<g>
</g>
<g>
</g>
<g>
</g>
<g>
</g>
</svg>
