<?xml version="1.0" encoding="iso-8859-1"?>
<!-- Generator: Adobe Illustrator 19.0.0, SVG Export Plug-In . SVG Version: 6.00 Build 0)  -->
<svg version="1.1" id="Capa_1" xmlns="http://www.w3.org/2000/svg" xmlns:xlink="http://www.w3.org/1999/xlink" x="0px" y="0px"
	 viewBox="0 0 512 512" style="enable-background:new 0 0 512 512;" xml:space="preserve">
<g>
	<g>
		<path d="M380,124H132C59.215,124,0,183.215,0,256s59.215,132,132,132h73c11.046,0,20-8.954,20-20c0-11.046-8.954-20-20-20h-73
			c-50.729,0-92-41.271-92-92s41.271-92,92-92h153.429C262.278,187.792,248,220.26,248,256c0,72.785,59.215,132,132,132
			s132-59.215,132-132S452.785,124,380,124z M380,348c-50.729,0-92-41.271-92-92s41.271-92,92-92s92,41.271,92,92
			S430.729,348,380,348z"/>
	</g>
</g>
<g>
</g>
<g>
</g>
<g>
</g>
<g>
</g>
<g>
</g>
<g>
</g>
<g>
</g>
<g>
</g>
<g>
</g>
<g>
</g>
<g>
</g>
<g>
</g>
<g>
</g>
<g>
</g>
<g>
</g>
</svg>
