<svg xmlns="http://www.w3.org/2000/svg" width="20.819" height="23.257" viewBox="0 0 20.819 23.257">
  <g id="_003-trolley" data-name="003-trolley" transform="matrix(0.966, -0.259, 0.259, 0.966, -0.748, 3.513)">
    <g id="Grupo_40" data-name="Grupo 40" transform="translate(0.742 14.964)">
      <g id="Grupo_39" data-name="Grupo 39">
        <path id="Trazado_40" data-name="Trazado 40" d="M2.859,0A2.835,2.835,0,0,0,0,2.829,2.877,2.877,0,0,0,2.876,5.675,2.835,2.835,0,0,0,5.735,2.846,2.877,2.877,0,0,0,2.859,0Zm.013,4.244A1.426,1.426,0,0,1,1.446,2.833a1.406,1.406,0,0,1,1.417-1.4A1.426,1.426,0,0,1,4.29,2.842,1.405,1.405,0,0,1,2.872,4.244Z" fill="#da5d48"/>
      </g>
    </g>
    <g id="Grupo_42" data-name="Grupo 42" transform="translate(0 2.889)">
      <g id="Grupo_41" data-name="Grupo 41">
        <path id="Trazado_41" data-name="Trazado 41" d="M3.855,1.285,1.008.06A.722.722,0,0,0,.059.43a.716.716,0,0,0,.38.942L2.849,2.408l.032,10.356a.724.724,0,0,0,.725.718.714.714,0,0,0,.721-.713L4.293,1.943A.721.721,0,0,0,3.855,1.285Z" fill="#da5d48"/>
      </g>
    </g>
    <g id="Grupo_44" data-name="Grupo 44" transform="translate(5.249 17.141)">
      <g id="Grupo_43" data-name="Grupo 43">
        <path id="Trazado_42" data-name="Trazado 42" d="M10.68,1.718,9.471.284A.732.732,0,0,0,8.914.025L.721,0A.714.714,0,0,0,0,.713a.724.724,0,0,0,.725.718l7.855.024.992,1.176a.73.73,0,0,0,.557.259.721.721,0,0,0,.462-.164A.71.71,0,0,0,10.68,1.718Z" fill="#da5d48"/>
      </g>
    </g>
    <g id="Grupo_46" data-name="Grupo 46" transform="translate(6.634 5.151)">
      <g id="Grupo_45" data-name="Grupo 45">
        <path id="Trazado_43" data-name="Trazado 43" d="M10.818.031.721,0A.714.714,0,0,0,0,.713L.027,9.488a.724.724,0,0,0,.725.718l10.1.031a.714.714,0,0,0,.721-.713L11.543.748A.725.725,0,0,0,10.818.031Zm-.7,8.773L1.471,8.777,1.448,1.433l8.651.026Z" fill="#da5d48"/>
      </g>
    </g>
    <g id="Grupo_48" data-name="Grupo 48" transform="translate(6.618)">
      <g id="Grupo_47" data-name="Grupo 47">
        <path id="Trazado_44" data-name="Trazado 44" d="M6.215.017.721,0A.714.714,0,0,0,0,.713L.016,5.864l1.446,0L1.448,1.433,5.5,1.445,5.51,5.88l1.446,0L6.94.734A.724.724,0,0,0,6.215.017Z" fill="#da5d48"/>
      </g>
    </g>
    <g id="Grupo_50" data-name="Grupo 50" transform="translate(9.535 8.188)">
      <g id="Grupo_49" data-name="Grupo 49">
        <path id="Trazado_45" data-name="Trazado 45" d="M2.6.006.721,0A.714.714,0,0,0,0,.713a.724.724,0,0,0,.725.718l1.88.006A.714.714,0,0,0,3.326.723.724.724,0,0,0,2.6.006Z" fill="#da5d48"/>
      </g>
    </g>
    <g id="Grupo_52" data-name="Grupo 52" transform="translate(9.545 11.216)">
      <g id="Grupo_51" data-name="Grupo 51">
        <path id="Trazado_46" data-name="Trazado 46" d="M3.781.009.721,0A.714.714,0,0,0,0,.713a.724.724,0,0,0,.725.718l3.061.009A.714.714,0,0,0,4.506.727.725.725,0,0,0,3.781.009Z" fill="#da5d48"/>
      </g>
    </g>
  </g>
</svg>
