<svg id="_006-truck" data-name="006-truck" xmlns="http://www.w3.org/2000/svg" width="66.461" height="39.611" viewBox="0 0 66.461 39.611">
  <g id="Grupo_14819" data-name="Grupo 14819" transform="translate(0 0)">
    <path id="Trazado_11049" data-name="Trazado 11049" d="M66.439,118.713a5.369,5.369,0,0,0-.5-1.928l-4.962-9.906a5.863,5.863,0,0,0-5.341-3.454H45.32a3.617,3.617,0,0,0-3.612,3.612v15.739H38.174v-9.3a1.3,1.3,0,0,0-1.3-1.3H28.508l-.692-1.43a1.3,1.3,0,1,0-2.337,1.131l.145.3H16.491l.145-.3a1.3,1.3,0,1,0-2.337-1.131l-.692,1.43H5.087a1.3,1.3,0,0,0-1.3,1.3v9.3H1.3a1.3,1.3,0,0,0-1.3,1.3v11.444a1.3,1.3,0,0,0,1.3,1.3H6.846a6.551,6.551,0,0,0,13.085,0H25.3a1.3,1.3,0,0,0,0-2.6H19.537a6.554,6.554,0,0,0-12.3,0H2.6v-8.847H41.707v8.847H36.783a1.3,1.3,0,0,0,0,2.6h9.465a6.551,6.551,0,0,0,13.085,0h2.112a5.023,5.023,0,0,0,5.017-5.017V119.211c0-.168-.009-.334-.023-.5Zm-53.05,21.726a3.955,3.955,0,0,1,0-7.909,4,4,0,0,1,3.955,3.955A3.959,3.959,0,0,1,13.388,140.439Zm22.189-25.668v8H33.637l-3.873-8Zm-4.825,8H22.279v-8h4.6Zm-11.07-8v8H11.362l3.873-8Zm-13.3,0h5.966l-3.873,8H6.385Zm49.246-8.751a3.265,3.265,0,0,1,2.981,1.94c.008.019.017.037.026.055l4.76,9.5H53.712a1.062,1.062,0,0,1-1.06-1.06V106.02ZM52.79,140.439a3.955,3.955,0,1,1,3.955-3.955A3.959,3.959,0,0,1,52.79,140.439Zm8.655-6.221H58.938a6.554,6.554,0,0,0-12.3,0H44.3V107.036a1.017,1.017,0,0,1,1.016-1.016h4.736v10.436a3.661,3.661,0,0,0,3.656,3.656H63.865V131.8a2.424,2.424,0,0,1-2.421,2.421Z" transform="translate(0 -103.424)" fill="#25669e"/>
    <path id="Trazado_11050" data-name="Trazado 11050" d="M393.7,253.511h-2a1.3,1.3,0,1,0,0,2.6h2a1.3,1.3,0,0,0,0-2.6Z" transform="translate(-339.724 -234.029)" fill="#25669e"/>
    <path id="Trazado_11051" data-name="Trazado 11051" d="M232.456,341.475a1.3,1.3,0,1,0-.7,1.7A1.31,1.31,0,0,0,232.456,341.475Z" transform="translate(-200.112 -309.879)" fill="#25669e"/>
  </g>
</svg>
