<svg xmlns="http://www.w3.org/2000/svg" width="66.462" height="65.461" viewBox="0 0 66.462 65.461">
  <g id="Grupo_14817" data-name="Grupo 14817" transform="translate(0 0)">
    <path id="Trazado_11042" data-name="Trazado 11042" d="M140.906,115.621a1.3,1.3,0,0,0-1.24-.912h-26.7a1.3,1.3,0,0,0-1.24.912l-4.7,15.1a1.311,1.311,0,0,0,1.24,1.684h36.1a1.311,1.311,0,0,0,1.24-1.684ZM110.033,129.81l3.891-12.5h24.787l3.891,12.5Z" transform="translate(-93.087 -100.319)" fill="#25669e"/>
    <path id="Trazado_11043" data-name="Trazado 11043" d="M62.57,22.2H59.577a4.217,4.217,0,0,0-1.644.332V7.284A3.432,3.432,0,0,0,54.5,3.856H39.429a1.3,1.3,0,0,0,0,2.6H54.5a.833.833,0,0,1,.833.832V25.76l-.347-1.114-2.557-8.216a4.819,4.819,0,0,0-4.622-3.4H18.649a4.818,4.818,0,0,0-4.622,3.4L11.3,25.186V7.284a.833.833,0,0,1,.832-.832H27.956a1.3,1.3,0,0,0,0-2.6H12.135A3.432,3.432,0,0,0,8.707,7.284V22.613A4.214,4.214,0,0,0,6.884,22.2H3.891A3.9,3.9,0,0,0,0,26.091v6.57a3.9,3.9,0,0,0,3.891,3.891H8.529V55.8a5.156,5.156,0,0,0,4.718,5.13v4.927A3.46,3.46,0,0,0,16.7,69.317h5.172a3.46,3.46,0,0,0,3.456-3.456V60.953H40.6v4.907a3.46,3.46,0,0,0,3.456,3.456h5.173a3.46,3.46,0,0,0,3.456-3.456V60.953h.1a5.156,5.156,0,0,0,5.15-5.15V36.552h4.638a3.9,3.9,0,0,0,3.891-3.891v-6.57A3.9,3.9,0,0,0,62.57,22.2ZM2.6,32.661v-6.57A1.3,1.3,0,0,1,3.891,24.8H6.884a1.646,1.646,0,0,1,1.645,1.645v7.515H3.891A1.3,1.3,0,0,1,2.6,32.661Zm20.138,33.2a.861.861,0,0,1-.86.86H16.7a.861.861,0,0,1-.86-.86V60.953h6.892Zm13.609-14.8H30.472V46.906a.548.548,0,0,1,.548-.548H35.8a.548.548,0,0,1,.548.548V51.06Zm-5.872,7.3v-4.7h5.871v4.7Zm19.613,7.5a.861.861,0,0,1-.86.86H44.053a.861.861,0,0,1-.86-.86V60.953h6.892ZM55.337,55.8a2.557,2.557,0,0,1-2.554,2.554H38.939V46.906A3.147,3.147,0,0,0,35.8,43.762H31.019a3.147,3.147,0,0,0-3.144,3.144V58.357h-14.2A2.557,2.557,0,0,1,11.125,55.8V34.5L16.507,17.2a2.233,2.233,0,0,1,2.142-1.577H47.812A2.233,2.233,0,0,1,49.955,17.2L55.337,34.5Zm8.529-23.142a1.3,1.3,0,0,1-1.295,1.295H57.933V26.429A1.646,1.646,0,0,1,59.577,24.8H62.57a1.3,1.3,0,0,1,1.295,1.295Z" transform="translate(0 -3.856)" fill="#25669e"/>
    <path id="Trazado_11044" data-name="Trazado 11044" d="M120.845,311.283H116.18a2.757,2.757,0,0,0-2.754,2.754v3.9a2.757,2.757,0,0,0,2.754,2.754h4.665a2.757,2.757,0,0,0,2.754-2.754v-3.9A2.757,2.757,0,0,0,120.845,311.283Zm.158,6.653a.158.158,0,0,1-.158.158H116.18a.158.158,0,0,1-.158-.158v-3.9a.158.158,0,0,1,.158-.158h4.665a.158.158,0,0,1,.158.158Z" transform="translate(-98.702 -271.377)" fill="#25669e"/>
    <path id="Trazado_11045" data-name="Trazado 11045" d="M330.544,311.283h-4.665a2.757,2.757,0,0,0-2.754,2.754v3.9a2.757,2.757,0,0,0,2.754,2.754h4.665a2.757,2.757,0,0,0,2.754-2.754v-3.9a2.757,2.757,0,0,0-2.754-2.754Zm.158,6.653a.158.158,0,0,1-.158.158h-4.665a.158.158,0,0,1-.158-.158v-3.9a.158.158,0,0,1,.158-.158h4.665a.158.158,0,0,1,.158.158v3.9Z" transform="translate(-281.181 -271.377)" fill="#25669e"/>
    <path id="Trazado_11046" data-name="Trazado 11046" d="M250.37,5.671a1.3,1.3,0,1,0,.7-1.7A1.31,1.31,0,0,0,250.37,5.671Z" transform="translate(-217.786 -3.876)" fill="#25669e"/>
  </g>
</svg>
