<?xml version="1.0" encoding="iso-8859-1"?>
<!-- Generator: Adobe Illustrator 19.0.0, SVG Export Plug-In . SVG Version: 6.00 Build 0)  -->
<svg version="1.1" id="Capa_1" xmlns="http://www.w3.org/2000/svg" xmlns:xlink="http://www.w3.org/1999/xlink" x="0px" y="0px"
	 viewBox="0 0 512 512" style="enable-background:new 0 0 512 512;" xml:space="preserve">
<g>
	<g>
		<path d="M504.906,229.271c-2.611-10.733-13.433-17.316-24.161-14.704c-10.732,2.611-17.316,13.429-14.704,24.161
			c1.845,7.583,3.266,15.311,4.256,23.134C456.317,258.755,438.219,256,418,256c-18.609,0-40.753,5.549-57.741,10.882
			c-4.792-89.437-31.942-148.018-55.596-182.765c50.554,10.868,94.98,38.682,126.027,79.914c6.643,8.823,19.182,10.593,28.007,3.946
			c8.824-6.644,10.591-19.184,3.946-28.007c-23.233-30.855-54.061-56.363-89.149-73.766C343.461,51.309,310.105,42.291,276,39.746
			V20c0-11.046-8.954-20-20-20c-11.046,0-20,8.954-20,20v19.727c-61.031,4.456-117.514,29.272-160.765,71.004
			C26.719,157.543,0,220.854,0,289c0,6.737,3.392,13.021,9.023,16.719c5.632,3.698,12.748,4.309,18.929,1.633
			C28.214,307.237,55.177,296,92,296c22.317,0,58.523,12.41,71.168,17.408c1.222,0.521,2.507,0.923,3.84,1.193
			c1.328,0.273,2.674,0.409,4.018,0.409c2.558,0,5.109-0.495,7.517-1.482c0.04-0.016,0.079-0.032,0.118-0.049
			c0.029-0.012,0.058-0.024,0.086-0.036c0.506-0.213,1.002-0.446,1.487-0.699c2.031-0.995,24.781-11.869,55.767-15.542V452
			c0,11.028-8.972,20-20,20c-10.841,0-20-9.373-20-20.467c0-11.046-8.954-20-20-20c-11.046,0-20,8.954-20,20
			C156,484.875,182.916,512,216,512s60-26.916,60-60V297.204c30.762,3.646,53.402,14.385,55.677,15.495
			c2.784,1.469,5.956,2.301,9.323,2.301c2.859,0,5.578-0.6,8.037-1.681C361.043,308.363,395.789,296,418,296
			c37.228,0,66.232,11.434,66.473,11.529c6.167,2.505,13.176,1.777,18.695-1.938C508.689,301.875,512,295.655,512,289
			C512,268.709,509.613,248.613,504.906,229.271z M151.729,267.111C134.182,261.702,111.14,256,92,256
			c-19.587,0-36.837,2.59-50.256,5.593c11.398-88.642,77.544-158.443,165.575-177.45
			C183.65,118.924,156.486,177.568,151.729,267.111z M256.001,256c-25.14,0-47.494,4.712-64.11,9.697
			c4.177-67.432,22.26-113.566,37.734-141.465c9.556-17.229,19.176-29.557,26.396-37.569c6.863,7.622,15.924,19.202,25.093,35.325
			c16.018,28.164,34.741,74.919,38.996,143.709C303.495,260.712,281.14,256,256.001,256z"/>
	</g>
</g>
<g>
</g>
<g>
</g>
<g>
</g>
<g>
</g>
<g>
</g>
<g>
</g>
<g>
</g>
<g>
</g>
<g>
</g>
<g>
</g>
<g>
</g>
<g>
</g>
<g>
</g>
<g>
</g>
<g>
</g>
</svg>
