<?xml version="1.0" encoding="iso-8859-1"?>
<!-- Generator: Adobe Illustrator 19.0.0, SVG Export Plug-In . SVG Version: 6.00 Build 0)  -->
<svg version="1.1" id="Capa_1" xmlns="http://www.w3.org/2000/svg" xmlns:xlink="http://www.w3.org/1999/xlink" x="0px" y="0px"
	 viewBox="0 0 512 512" style="enable-background:new 0 0 512 512;" xml:space="preserve">
<g>
	<g>
		<path d="M474.135,192.825L298.429,17.549c-23.396-23.395-61.463-23.395-84.839-0.018L37.864,192.823
			c-7.82,7.802-7.836,20.466-0.035,28.286c7.802,7.821,20.466,7.835,28.285,0.035L241.858,45.833
			c7.797-7.797,20.487-7.798,28.302,0.018l175.725,175.294c3.904,3.894,9.015,5.84,14.126,5.84c5.126,0,10.253-1.959,14.16-5.874
			C481.972,213.29,481.956,200.626,474.135,192.825z"/>
	</g>
</g>
<g>
	<g>
		<path d="M256,108.979c-11.047,0-20.001,8.954-20.001,20.001v363.018c0,11.047,8.954,20.001,20.001,20.001
			s20.001-8.954,20.001-20.001V128.98C276.001,117.934,267.047,108.979,256,108.979z"/>
	</g>
</g>
<g>
</g>
<g>
</g>
<g>
</g>
<g>
</g>
<g>
</g>
<g>
</g>
<g>
</g>
<g>
</g>
<g>
</g>
<g>
</g>
<g>
</g>
<g>
</g>
<g>
</g>
<g>
</g>
<g>
</g>
</svg>
