<?xml version="1.0" encoding="iso-8859-1"?>
<!-- Generator: Adobe Illustrator 19.0.0, SVG Export Plug-In . SVG Version: 6.00 Build 0)  -->
<svg version="1.1" id="Capa_1" xmlns="http://www.w3.org/2000/svg" xmlns:xlink="http://www.w3.org/1999/xlink" x="0px" y="0px"
	 viewBox="0 0 512 512" style="enable-background:new 0 0 512 512;" xml:space="preserve">
<g>
	<g>
		<g>
			<path d="M312.66,259.601l-31.819,13.558c-0.145,0.062-0.29,0.125-0.433,0.19c-2.374,1.079-4.678,2.267-6.908,3.555V120h27.929
				c7.167,0,13.787-3.835,17.351-10.053c3.564-6.218,3.529-13.868-0.092-20.053l-46.845-80c-3.55-6.063-10.021-9.818-17.046-9.893
				c-7.037-0.067-13.574,3.542-17.253,9.529l-49.155,80c-3.792,6.171-3.951,13.911-0.415,20.232
				C191.509,116.084,198.186,120,205.43,120h28.07v211.476L132.145,269.84c-11.853-7.208-19.216-20.304-19.216-34.177v-1.244
				C135.986,226.044,152.5,203.914,152.5,178c0-33.084-26.916-60-60-60s-60,26.916-60,60c0,26.234,16.925,48.591,40.429,56.723v0.94
				c0,27.746,14.727,53.937,38.433,68.354l103.28,62.807c10.254,6.236,17.148,16.878,18.821,28.617
				C210.201,403.706,193.5,425.939,193.5,452c0,33.084,26.916,60,60,60s60-26.916,60-60c0-26.014-16.641-48.214-39.837-56.514
				c-0.046-0.658-0.101-1.314-0.163-1.97v-47.332c0-15.579,9.123-29.814,23.26-36.329l31.58-13.456
				c10.162-4.33,14.889-16.078,10.56-26.239C334.57,259.999,322.823,255.271,312.66,259.601z M92.5,198c-11.028,0-20-8.972-20-20
				s8.972-20,20-20s20,8.972,20,20S103.528,198,92.5,198z M254.171,58.875L266.541,80h-25.35L254.171,58.875z M253.5,472
				c-11.028,0-20-8.972-20-20s8.972-20,20-20s20,8.972,20,20S264.528,472,253.5,472z"/>
			<path d="M459.5,84h-70c-11.046,0-20,8.954-20,20v70c0,11.046,8.954,20,20,20h14.901c-0.87,12.224-7.422,23.399-17.897,30.294
				c-9.227,6.073-11.783,18.476-5.709,27.702c3.843,5.839,10.221,9.006,16.724,9.006c3.774,0,7.59-1.067,10.978-3.297
				c21.759-14.322,35.054-37.979,35.954-63.706H459.5c11.046,0,20-8.954,20-20v-70C479.5,92.954,470.546,84,459.5,84z M439.5,154
				h-30v-30h30V154z"/>
		</g>
	</g>
</g>
<g>
</g>
<g>
</g>
<g>
</g>
<g>
</g>
<g>
</g>
<g>
</g>
<g>
</g>
<g>
</g>
<g>
</g>
<g>
</g>
<g>
</g>
<g>
</g>
<g>
</g>
<g>
</g>
<g>
</g>
</svg>
