<?xml version="1.0" encoding="iso-8859-1"?>
<!-- Generator: Adobe Illustrator 19.0.0, SVG Export Plug-In . SVG Version: 6.00 Build 0)  -->
<svg version="1.1" id="Capa_1" xmlns="http://www.w3.org/2000/svg" xmlns:xlink="http://www.w3.org/1999/xlink" x="0px" y="0px"
	 viewBox="0 0 512 512" style="enable-background:new 0 0 512 512;" xml:space="preserve">
<g>
	<g>
		<path d="M492,311c11.046,0,20-8.954,20-20V121c0-44.112-35.888-80-80-80H80C35.888,41,0,76.888,0,121v270
			c0,44.112,35.888,80,80,80h352c44.112,0,80-35.888,80-80c0-11.046-8.954-20-20-20c-11.046,0-20,8.954-20,20
			c0,22.056-17.944,40-40,40H80c-22.056,0-40-17.944-40-40V121c0-22.056,17.944-40,40-40h352c22.056,0,40,17.944,40,40v170
			C472,302.046,480.954,311,492,311z"/>
	</g>
</g>
<g>
	<g>
		<circle cx="97" cy="141" r="20"/>
	</g>
</g>
<g>
	<g>
		<circle cx="177" cy="141" r="20"/>
	</g>
</g>
<g>
	<g>
		<circle cx="257" cy="141" r="20"/>
	</g>
</g>
<g>
	<g>
		<circle cx="337" cy="141" r="20"/>
	</g>
</g>
<g>
	<g>
		<circle cx="417" cy="141" r="20"/>
	</g>
</g>
<g>
	<g>
		<circle cx="97" cy="371" r="20"/>
	</g>
</g>
<g>
	<g>
		<circle cx="177" cy="371" r="20"/>
	</g>
</g>
<g>
	<g>
		<circle cx="257" cy="371" r="20"/>
	</g>
</g>
<g>
	<g>
		<circle cx="337" cy="371" r="20"/>
	</g>
</g>
<g>
	<g>
		<circle cx="417" cy="371" r="20"/>
	</g>
</g>
<g>
</g>
<g>
</g>
<g>
</g>
<g>
</g>
<g>
</g>
<g>
</g>
<g>
</g>
<g>
</g>
<g>
</g>
<g>
</g>
<g>
</g>
<g>
</g>
<g>
</g>
<g>
</g>
<g>
</g>
</svg>
