<?xml version="1.0" encoding="iso-8859-1"?>
<!-- Generator: Adobe Illustrator 19.0.0, SVG Export Plug-In . SVG Version: 6.00 Build 0)  -->
<svg version="1.1" id="Capa_1" xmlns="http://www.w3.org/2000/svg" xmlns:xlink="http://www.w3.org/1999/xlink" x="0px" y="0px"
	 viewBox="0 0 512.001 512.001" style="enable-background:new 0 0 512.001 512.001;" xml:space="preserve">
<g>
	<g>
		<g>
			<path d="M501.589,137.43c-7.292-27.046-28.642-48.369-55.639-55.628c-38.416-10.498-174.554-10.801-189.951-10.801
				c-15.386,0-151.432,0.291-189.761,10.362c-0.069,0.019-0.137,0.037-0.205,0.056c-26.581,7.286-48.414,29.273-55.624,56.011
				c-0.009,0.037-0.019,0.073-0.029,0.11C0.118,176.48,0,252.772,0,256.001c0,3.245,0.118,79.931,10.41,118.571
				c7.292,27.046,28.642,48.37,55.69,55.642c38.77,10.484,174.545,10.787,189.899,10.787c15.387,0,151.433-0.291,189.761-10.363
				c0.036-0.009,0.073-0.019,0.109-0.029c27.077-7.28,48.428-28.603,55.72-55.648c2.875-10.665-3.439-21.642-14.104-24.518
				c-10.665-2.874-21.642,3.439-24.517,14.104c-3.59,13.314-14.098,23.816-27.432,27.42c-28.33,7.408-139.186,9.033-179.537,9.034
				c-40.246,0-150.942-1.688-179.485-9.408c-13.359-3.591-23.889-14.104-27.468-27.375C40.116,330.69,40,256.742,40,256.001
				c0-20.537,1.625-79.973,9.044-108.201c3.591-13.255,14.362-24.145,27.468-27.778c28.415-7.396,139.162-9.02,179.489-9.021
				c40.347,0,151.229,1.686,179.485,9.408c13.358,3.591,23.889,14.104,27.505,27.514c7.686,28.044,9.109,87.735,9.008,108.465
				c0,0.049-0.003,4.954-0.16,12.709c-0.223,11.043,8.549,20.176,19.592,20.4c0.138,0.003,0.275,0.004,0.412,0.004
				c10.857,0,19.767-8.691,19.988-19.596c0.157-7.814,0.167-12.818,0.167-13.454C512.016,252.669,512.237,176.283,501.589,137.43z"
				/>
			<path d="M245.654,171.802c-12.215-7.09-26.812-7.113-39.05-0.066C194.329,178.804,187,191.495,187,205.681v99.639
				c0,14.187,7.329,26.877,19.604,33.946c6.099,3.512,12.785,5.268,19.469,5.268c6.728,0,13.455-1.779,19.581-5.333l85.854-49.819
				C343.713,282.299,351,269.633,351,255.501c0-14.132-7.287-26.799-19.492-33.882L245.654,171.802z M227,303.778v-96.555
				l83.199,48.278L227,303.778z"/>
		</g>
	</g>
</g>
<g>
</g>
<g>
</g>
<g>
</g>
<g>
</g>
<g>
</g>
<g>
</g>
<g>
</g>
<g>
</g>
<g>
</g>
<g>
</g>
<g>
</g>
<g>
</g>
<g>
</g>
<g>
</g>
<g>
</g>
</svg>
